<?xml version="1.0" standalone="no"?>
<!DOCTYPE svg PUBLIC "-//W3C//DTD SVG 20010904//EN"
 "http://www.w3.org/TR/2001/REC-SVG-20010904/DTD/svg10.dtd">
<svg version="1.0" xmlns="http://www.w3.org/2000/svg"
 width="391.000000pt" height="391.000000pt" viewBox="0 0 391.000000 391.000000"
 preserveAspectRatio="xMidYMid meet">
<metadata>
Created by potrace 1.11, written by Peter Selinger 2001-2013
</metadata>
<g transform="translate(0.000000,391.000000) scale(0.100000,-0.100000)"
fill="#000000" stroke="none">
<path d="M1767 3895 c-184 -29 -404 -123 -563 -240 -274 -203 -456 -492 -531
-846 -19 -91 -24 -360 -9 -454 33 -204 111 -405 216 -560 57 -84 119 -239 133
-335 17 -108 24 -180 26 -242 1 -16 24 -26 101 -44 23 -5 449 -114 714 -183
131 -34 242 -59 246 -54 3 4 33 49 66 98 33 51 100 131 154 185 77 77 117 107
207 158 199 112 324 219 447 382 178 237 272 514 274 812 3 495 -247 935 -666
1174 -118 67 -282 125 -422 149 -78 13 -308 13 -393 0z m630 -759 c2 -2 -4
-24 -15 -48 -11 -23 -36 -86 -57 -138 -20 -52 -43 -108 -50 -125 -8 -16 -82
-199 -165 -405 -84 -206 -160 -393 -170 -415 -9 -22 -30 -73 -46 -112 -15 -40
-34 -73 -41 -73 -25 0 -133 33 -133 41 0 4 68 173 151 376 83 202 175 427 205
500 88 217 176 428 180 435 4 6 131 -26 141 -36z m-752 -27 c-4 -6 -17 -47
-29 -92 l-21 -82 -95 -49 c-52 -27 -152 -78 -222 -112 l-126 -63 -44 66 c-23
37 -38 68 -32 70 5 2 129 63 274 137 248 125 311 152 295 125z m1168 -692 l37
-57 -69 -34 -69 -35 -130 197 c-71 108 -132 202 -136 209 -4 7 0 36 8 65 8 29
20 73 26 97 l11 43 142 -214 c78 -118 159 -239 180 -271z m-1702 301 c29 -46
109 -168 177 -273 l125 -190 -24 -93 c-13 -51 -27 -91 -30 -90 -14 5 -353 523
-353 538 0 14 47 190 50 190 1 0 26 -37 55 -82z m1713 -463 c-9 -33 -18 -68
-20 -78 -2 -10 -6 -27 -9 -38 -5 -13 -97 -64 -296 -163 -159 -79 -289 -142
-289 -139 0 12 42 169 49 180 6 11 572 303 578 299 1 -1 -5 -29 -13 -61z"/>
<path d="M1006 1125 c-26 -39 -39 -120 -23 -133 10 -8 76 -27 157 -47 39 -9
624 -159 690 -176 180 -49 220 -56 228 -45 26 33 43 121 28 140 -6 8 -40 21
-76 29 -64 15 -337 85 -520 133 -52 14 -104 27 -115 30 -11 2 -95 24 -187 48
l-167 43 -15 -22z"/>
<path d="M945 900 c-18 -34 -27 -101 -16 -118 6 -10 38 -20 131 -41 19 -5 152
-39 295 -76 143 -37 267 -68 275 -70 8 -2 60 -16 115 -30 55 -15 107 -28 115
-30 8 -1 42 -10 75 -19 56 -15 61 -14 73 1 32 44 41 144 12 149 -18 2 -534
134 -670 171 -52 14 -102 26 -110 28 -8 2 -69 17 -135 34 -66 17 -125 31 -132
31 -7 0 -20 -14 -28 -30z"/>
<path d="M895 697 c-9 -14 -19 -50 -22 -80 -5 -51 -4 -54 18 -59 21 -5 315
-80 674 -173 55 -14 109 -28 119 -30 10 -2 55 -14 100 -26 45 -11 88 -22 96
-24 8 -2 27 -6 41 -10 23 -6 28 -2 42 27 8 18 18 52 21 76 7 53 21 46 -234
111 -107 27 -330 84 -495 127 -165 42 -310 79 -322 81 -15 4 -26 -3 -38 -20z"/>
<path d="M835 471 c-16 -37 -24 -105 -13 -116 6 -6 29 -12 378 -101 140 -36
351 -90 468 -120 117 -30 218 -52 223 -48 18 11 39 71 39 112 l0 40 -142 36
c-358 90 -778 198 -823 210 -107 30 -111 29 -130 -13z"/>
<path d="M971 233 c58 -65 116 -116 152 -135 32 -16 128 -45 207 -63 8 -1 41
-10 73 -18 32 -9 84 -14 115 -13 83 4 263 61 200 63 -7 0 -94 22 -193 47 -378
99 -564 146 -571 146 -4 0 3 -12 17 -27z"/>
</g>
</svg>
