<svg xmlns="http://www.w3.org/2000/svg" viewBox="0 0 74.08333 11.90625" height="45" width="280"><path d="M4.114.077C2.3 0 .606 1.248.127 3.14l-.016.063a.222.222 0 0 0-.005.02l-.01.048-.004.017-.014.065-.012.064-.003.018a1.014 1.014 0 0 0-.008.05l-.003.017a1.526 1.526 0 0 0-.01.065v.003l-.009.062-.002.017-.006.055a.031.031 0 0 0 0 .01l-.008.067v.006l-.005.06-.001.015-.004.058v.007l-.003.068v.007l-.002.059v.014L0 4.136v.079l.002.062v.011c0 .022.002.043.003.065l.004.069v.006l.005.063v.006l.006.068.008.069v.003l.008.063.001.007.02.136.001.002.012.066v.004l.028.135v.003l.015.064.001.004c.01.044.022.089.034.133l.001.004.02.065c.012.045.025.088.04.132l.002.003a4.065 4.065 0 0 0 .308.7l.036.061a4 4 0 0 0 .09.15c.003.006.008.01.013.017.024.037.048.074.074.11.146.227.42.75.436 1.706l-.005.021.005.002 3.186.818.006.002.005-.022c.468-.831.957-1.158 1.193-1.288l.118-.06.018-.01a4.58 4.58 0 0 0 .152-.087l.058-.037c.04-.025.079-.05.117-.076h.002l.167-.12s.002-.001.002-.003a4.05 4.05 0 0 0 .419-.364l.047-.049s.002 0 .003-.002l.092-.1c.002-.001.002 0 .004-.003a3.624 3.624 0 0 0 .135-.159c.014-.017.029-.034.042-.052a4.03 4.03 0 0 0 .084-.11l.003-.006a6.131 6.131 0 0 0 .117-.168c0-.003.002-.003.003-.004a4.59 4.59 0 0 0 .034-.054l.003-.004.036-.057.033-.056.006-.01a3.614 3.614 0 0 0 .067-.121l.029-.055.006-.012c.01-.018.017-.035.026-.053l.003-.006.03-.061.003-.006.024-.052c.003-.004.004-.01.006-.015l.024-.054.003-.006.026-.063c0-.004.003-.007.005-.01a1.787 1.787 0 0 0 .026-.066l.022-.059.001-.004.023-.061.005-.017.016-.048.006-.017.02-.061v-.001l.02-.064c0-.006.002-.011.004-.017l.013-.048.005-.019.017-.063a4.104 4.104 0 0 0-.64-3.414l-.027-.039A3.815 3.815 0 0 0 4.896.197L4.894.194a3.775 3.775 0 0 0-.782-.116zm.713 2.199l.437.118-1.62 3.982-.447-.12zm-1.83.143l-.159.595-1.33.666-.259-.39zm59.186.394l-1.032.125v7.89h1.032zm-15.694.045c-.516 0-.921.167-1.215.5-.294.325-.44.764-.44 1.317v.76h-.797l.012.84h.784v4.553h1.033V6.276h1.3l-.333-.84h-.967v-.659c0-.28.053-.507.16-.681.116-.182.302-.273.56-.273a.84.84 0 0 1 .258.046c.1.023.186.05.258.08l.258-.84a1.663 1.663 0 0 0-.387-.171 1.57 1.57 0 0 0-.484-.08zm25.175.068c-.745 0-1.333.193-1.763.58a1.844 1.844 0 0 0-.635 1.418c0 1.166.628 1.934 1.882 2.305 1.262.364 1.893.928 1.893 1.692a.96.96 0 0 1-.41.806c-.271.205-.67.307-1.193.307-.33 0-.662-.053-1-.16a5.627 5.627 0 0 1-.806-.328l-.129.43-.107.433c.143.136.444.264.903.386.458.12.842.181 1.15.181.846 0 1.495-.193 1.946-.58.459-.393.688-.892.688-1.497 0-1.128-.63-1.882-1.892-2.26-1.262-.379-1.892-.957-1.892-1.737 0-.34.136-.594.408-.76.28-.167.624-.25 1.032-.25.344 0 .635.045.871.136.244.083.46.174.645.272.05-.144.108-.287.172-.431.065-.144.122-.288.172-.432a5.138 5.138 0 0 0-.881-.352 3.492 3.492 0 0 0-1.054-.159zm-66.132.178l1.081 1.633-.417.208L5.374 3.7zm4.545.004v7.72h4.462l-.129-.851h-3.3V3.108zm23.526 0v.863h2.269v6.857h1.043V3.971h2.408a9.046 9.046 0 0 1-.075-.432l-.065-.431zm29.918 0v7.72h2.527c.767 0 1.401-.174 1.903-.522.509-.356.763-.916.763-1.68 0-.5-.122-.909-.366-1.227a2.239 2.239 0 0 0-.946-.715c.244-.166.441-.37.592-.613.158-.25.236-.54.236-.874 0-.78-.236-1.32-.71-1.624-.465-.31-1.067-.465-1.805-.465zM1.217 3.41l.26.392h-.003l.822 1.25-.157.59-1.083-1.636.032-.12.126-.476zm63.336.617h1.075c.466 0 .839.08 1.118.239.28.151.42.465.42.942 0 .44-.15.746-.452.92-.3.174-.688.265-1.16.272h-1zm-57.972.83l.002.004-.159.596-1.75.87.157-.589 1.331-.669-.001-.003zm16.13.317c-.81 0-1.434.269-1.871.806-.43.538-.649 1.234-.656 2.09 0 .862.211 1.563.634 2.1.43.537 1.047.806 1.85.806.222 0 .498-.046.828-.137.33-.09.609-.219.838-.386l-.312-.783a5.548 5.548 0 0 1-.612.273c-.18.068-.427.102-.742.102-.495 0-.857-.185-1.087-.556-.229-.379-.343-.856-.343-1.431.007-.553.129-1.014.365-1.385.244-.379.61-.568 1.097-.568.308 0 .555.038.741.114.187.075.391.162.613.26l.301-.771a2.58 2.58 0 0 0-.838-.386c-.323-.098-.591-.148-.806-.148zm4.204 0c-.223 0-.523.045-.903.136-.38.091-.67.208-.87.352l.29.864a4.92 4.92 0 0 1 .666-.25c.25-.084.53-.125.838-.125.409 0 .685.136.828.409.144.272.215.597.215.976h-1.236c-.567 0-1.029.148-1.387.443-.351.287-.527.707-.527 1.26 0 .5.147.912.441 1.237.301.326.76.489 1.376.489.28 0 .559-.068.839-.205.28-.136.509-.288.688-.454.043.083.086.17.129.261.043.09.09.178.14.261h.58V7.093c0-.568-.2-1.03-.602-1.385-.401-.356-.903-.534-1.505-.534zm4.765 0c-.609 0-1.093.144-1.451.431-.351.28-.527.67-.527 1.17 0 .447.183.799.549 1.056a4.75 4.75 0 0 0 1.16.602c.338.113.606.25.807.409.208.15.312.332.312.544a.537.537 0 0 1-.29.489c-.187.113-.452.17-.796.17-.236 0-.473-.034-.71-.102a3.852 3.852 0 0 1-.688-.273l-.322.806c.222.167.509.292.86.375.351.083.638.125.86.125.688 0 1.211-.144 1.57-.432.365-.295.548-.7.548-1.215 0-.454-.187-.82-.56-1.1a4.799 4.799 0 0 0-1.203-.682 3.711 3.711 0 0 1-.753-.352c-.18-.129-.272-.276-.28-.443 0-.197.08-.352.237-.465.165-.121.384-.182.656-.182.28 0 .527.038.742.114.222.075.433.162.634.26l.323-.783a2.447 2.447 0 0 0-.839-.386 3.348 3.348 0 0 0-.839-.136zm9.872 0c-.223 0-.524.045-.904.136-.38.091-.67.208-.87.352l.29.864a4.92 4.92 0 0 1 .666-.25 2.63 2.63 0 0 1 .839-.125c.408 0 .684.136.828.409.143.272.215.597.215.976h-1.237c-.566 0-1.028.148-1.386.443-.352.287-.527.707-.527 1.26 0 .5.147.912.44 1.237.302.326.76.489 1.377.489.28 0 .559-.068.838-.205.28-.136.51-.288.688-.454.043.083.086.17.13.261.042.09.089.178.139.261h.58V7.093c0-.568-.2-1.03-.601-1.385-.402-.356-.903-.534-1.505-.534zm8.028 0c-.222 0-.523.045-.903.136-.38.091-.67.208-.871.352l.29.864c.194-.091.416-.175.667-.25a2.63 2.63 0 0 1 .839-.125c.408 0 .684.136.828.409.143.272.215.597.215.976h-1.237c-.566 0-1.028.148-1.387.443-.35.287-.527.707-.527 1.26 0 .5.148.912.441 1.237.301.326.76.489 1.377.489.279 0 .558-.068.838-.205.28-.136.51-.288.688-.454.043.083.086.17.13.261.042.09.089.178.139.261h.58V7.093c0-.568-.2-1.03-.601-1.385-.402-.356-.904-.534-1.506-.534zm8.51 0c-.781 0-1.394.269-1.838.806-.437.538-.656 1.234-.656 2.09 0 .862.233 1.563.699 2.1.473.53 1.147.795 2.021.795.222 0 .51-.042.86-.126.359-.075.653-.196.882-.363l-.323-.795a5.87 5.87 0 0 1-.645.273 2.513 2.513 0 0 1-.774.102c-.53 0-.928-.163-1.193-.488-.265-.326-.416-.742-.452-1.249h3.698c0-.84-.168-1.574-.505-2.202-.337-.629-.928-.943-1.774-.943zm-43.144.148v3.633c0 .59.144 1.083.43 1.476.294.386.76.579 1.398.579.28 0 .577-.068.892-.205a2.76 2.76 0 0 0 .828-.556l.301.58h.591V5.321h-1.032v4.144c-.215.19-.447.34-.698.454a1.75 1.75 0 0 1-.667.16c-.33 0-.58-.11-.753-.33-.165-.227-.247-.519-.247-.875V5.322zm37.766 0v5.506h1.032V7.07c.25-.257.53-.465.838-.624.316-.167.617-.25.904-.25l-.227-.874c-.279 0-.573.087-.881.261-.301.167-.552.34-.753.522l-.333-.783zm5.346.783c.394 0 .695.133.903.398.208.265.344.624.409 1.078h-2.677c.05-.447.19-.802.42-1.067.228-.273.544-.409.945-.409zm6.495 1.18h1.56c.465 0 .838.11 1.117.33.287.22.43.564.43 1.033 0 .462-.157.792-.473.988-.315.197-.71.296-1.183.296h-1.45zm-37.832.977h1.269v1.113c-.18.212-.387.386-.624.523-.23.136-.476.203-.742.203-.294 0-.512-.09-.655-.272a.934.934 0 0 1-.215-.59c0-.258.082-.485.247-.682.165-.196.405-.295.72-.295zm14.637 0h1.269v1.113c-.18.212-.388.386-.624.523-.23.136-.476.203-.742.203-.294 0-.512-.09-.656-.272a.934.934 0 0 1-.215-.59c0-.258.083-.485.248-.682.165-.196.405-.295.72-.295zm8.029 0h1.268v1.113a2.362 2.362 0 0 1-.623.523c-.23.136-.477.203-.742.203-.294 0-.513-.09-.656-.272a.934.934 0 0 1-.215-.59c0-.258.082-.485.247-.682.165-.196.405-.295.72-.295zM1.12 8.388c-.099.051-.18.389-.12.48l3.196.82c.096-.051.184-.387.122-.48zm-.16.637c-.1.051-.182.389-.122.48l3.197.82c.096-.051.184-.387.121-.48zm-.162.636c-.1.052-.181.39-.12.48l3.196.82c.096-.05.184-.386.121-.48zm-.16.637c-.1.052-.182.389-.122.48l3.197.82c.096-.051.184-.387.121-.48zm.226.737c.3.286.37.471.752.58l.367.094.366.095c.387.087.536-.041.936-.148l-1.21-.311z" fill="#fff" fill-opacity=".994" paint-order="fill markers stroke"/></svg>