<?xml version="1.0" encoding="UTF-8" standalone="no"?>
<!-- Created with Inkscape (http://www.inkscape.org/) -->

<svg
   xmlns:dc="http://purl.org/dc/elements/1.1/"
   xmlns:cc="http://creativecommons.org/ns#"
   xmlns:rdf="http://www.w3.org/1999/02/22-rdf-syntax-ns#"
   xmlns:svg="http://www.w3.org/2000/svg"
   xmlns="http://www.w3.org/2000/svg"
   xmlns:sodipodi="http://sodipodi.sourceforge.net/DTD/sodipodi-0.dtd"
   xmlns:inkscape="http://www.inkscape.org/namespaces/inkscape"
   id="svg3211"
   height="52.064"
   width="425.51"
   version="1.1"
   inkscape:version="0.48.5 r10040"
   sodipodi:docname="logo.svg">
  <defs
     id="defs11" />
  <sodipodi:namedview
     pagecolor="#ffffff"
     bordercolor="#666666"
     borderopacity="1"
     objecttolerance="10"
     gridtolerance="10"
     guidetolerance="10"
     inkscape:pageopacity="0"
     inkscape:pageshadow="2"
     inkscape:window-width="751"
     inkscape:window-height="480"
     id="namedview9"
     showgrid="false"
     inkscape:zoom="0.66273412"
     inkscape:cx="212.755"
     inkscape:cy="26.032"
     inkscape:window-x="0"
     inkscape:window-y="31"
     inkscape:window-maximized="0"
     inkscape:current-layer="svg3211" />
  <metadata
     id="metadata3216">
    <rdf:RDF>
      <cc:Work
         rdf:about="">
        <dc:format>image/svg+xml</dc:format>
        <dc:type
           rdf:resource="http://purl.org/dc/dcmitype/StillImage" />
        <dc:title />
      </cc:Work>
    </rdf:RDF>
  </metadata>
  <g
     id="layer1"
     transform="translate(-208.94013,-379.79196)"
     style="fill:#e2d3c3;fill-opacity:1">
    <g
       id="g3137"
       fill="#1a1a1a"
       transform="matrix(0.83084931,0.55649747,-0.55649747,0.83084931,326.91421,-393.34564)"
       style="fill:#e2d3c3;fill-opacity:1">
      <g
         id="text3112-0"
         style="letter-spacing:0px;word-spacing:0px;fill:#e2d3c3;fill-opacity:1"
         font-weight="bold"
         font-size="56px"
         font-style="normal"
         font-stretch="normal"
         line-height="125%"
         font-variant="normal"
         font-family="Comfortaa"
         fill="#1a1a1a">
        <g
           id="g2993"
           style="fill:#e2d3c3;fill-opacity:1">
          <path
             id="path3029"
             fill="#1a1a1a"
             d="m669.16,494.95c0,2.24,1.792,4.032,4.032,4.032s4.032-1.792,4.032-4.032-1.792-4.032-4.032-4.032-4.032,1.792-4.032,4.032m0,11.704c0,2.24,1.792,4.032,4.032,4.032s4.032-1.792,4.032-4.032-1.792-4.032-4.032-4.032-4.032,1.792-4.032,4.032m15.237-28.896c2.6608,4.874,4.9357,10.301,5.7748,17.42,1.37,11.624-1.746,20.111-6.9851,29.243l3.4192,1.7397c6.0145-8.7723,10.563-18.5,9.0883-31.013-0.95702-8.1198-3.9319-12.788-8.0947-19.402l-3.2024,2.0127m-37.323,33.524,6.4884-1.7846c-0.2199-1.1333-0.92393-3.4926-2.1705-5.3537-2.6178-3.9083-7.5097-3.6648-11.139-1.234-7.2118,4.8304-11.107,13.707-5.9334,21.431,2.8359,4.234,7.1524,3.6345,11.219,2.4608,4.3305-1.283,8.349-3.2331,9.9696-0.81367,2.2126,3.3034-1.352,6.8368-4.6555,9.0495-3.0708,2.0568-5.2128,2.6827-8.6892,3.9328l1.9088,6.4726c3.8337-1.2198,7.1551-2.2986,11.11-4.9476,6.5604-4.3941,11.218-12.434,6.8239-18.994-3.8955-5.8159-9.2821-4.4996-13.892-3.0297-3.6629,1.1728-6.8132,2.4066-8.2779,0.2198-2.1192-3.1639-0.76147-7.3759,2.4489-9.5262,1.2097-0.81026,2.8869-0.9226,3.6972,0.28711,0.46745,0.69791,1.0912,1.8304,1.0912,1.8304m-45.244,28.282c0.91388-1.1513,1.7505-2.1161,2.6183-3.0343l14.503,27.289,5.7694-3.8643-6.5826-13.048c0.9762-1.0583,2.7903-2.4756,4.3723-3.5351,2.4194-1.6205,5.8036-2.4044,7.4242,0.015,1.4647,2.1868,1.114,5.1852-1.0728,6.6499-1.675,1.1219-2.9786,1.5907-4.7484,1.9672l2.5598,5.8344c2.4071-0.12947,4.4864-1.0503,6.8593-2.6397,5.118-3.428,6.905-10.219,3.477-15.337-2.5243-3.7687-7.9631-5.0461-10.85-4.3254,0.48989-3.2938,0.60712-6.5401-1.512-9.704-3.8955-5.8159-12.139-4.1362-17.955-0.24075-4.5597,3.054-8.5097,7.924-10.028,9.8843l5.1653,4.0892m8.494-8.0482,1.6285-1.0907c2.2333-1.4959,5.3704-1.6424,6.8663,0.59089,2.1191,3.1639,0.57492,7.2986-2.589,9.4178-0.41874,0.28048-0.80676,0.40557-1.2106,0.40644l-4.6952-9.3244m-20.01,6.0559-5.3041,3.5527c5.8952,11.217,14.941,28.546,15.066,28.732,1.7763,2.6521,5.4748,3.5449,8.1734,1.7374,2.7916-1.8698,4.2902-5.5696,4.986-7.0466l-4.8195-2.164c-0.43325,0.76198-0.80459,1.4151-1.6421,1.9761-0.88403,0.59211-1.8313,0.68734-2.8597-0.84806-0.15582-0.23264-8.297-15.809-13.6-25.94m-10.688,33.445c-0.29759-1.1487-0.25848-4.6123,1.7422-5.9524,1.1167-0.74793,2.53-0.75098,3.2156,0.27262,0.99723,1.4889-0.39684,3.2314-1.8857,4.2287-1.1167,0.74793-2.2803,1.3251-3.0721,1.4511m-0.78294-10.125c-6.4208,4.3006-7.179,12.829-2.9718,19.11,3.5215,5.2576,10.716,6.6399,15.973,3.1184,3.443-2.3061,5.7334-6.1319,6.8475-8.0913l-4.6658-2.9409c-1.5016,2.2864-2.2601,3.4684-4.4004,4.902-2.2333,1.4959-5.3076,1.9374-6.8658-0.38898,0.94635-0.49906,1.8304-1.0912,2.6679-1.6521,5.3507-3.5838,8.6177-8.2659,5.4702-12.965-2.6178-3.9083-7.4022-4.2086-12.055-1.0922m-17.782,18.044-2.4005-3.9864-5.3041,3.5527,11.385,21.626,5.118-3.428c-3.3358-5.5842-5.7407-11.59-4.0736-16.346l4.2172,3.7806,2.8632-4.6812c-1.6969-1.8291-3.4719-3.8754-4.8743-5.9692-0.77909-1.1632-1.4651-2.3887-2.0116-3.7077-0.40382,0.00087-0.76112-0.0294-1.1799,0.25105-2.3729,1.5894-3.6213,6.0652-3.7394,8.9077m-21.992,16.281c1.3493-0.90375,3.7116-0.1944,4.8024,1.4341,1.9633,2.9312,2.4584,9.205-0.33329,11.075-1.5819,1.0596-3.7731,0.50517-4.8327-1.0768-2.4931-3.7222-2.6142-9.4376,0.36358-11.432m5.9091-11.102-5.4902,3.6773,0.53109,1.3967c-1.506,0.2673-3.6484,0.69128-5.5561,1.969-6.4208,4.3006-5.7796,13.509-1.5725,19.791,2.8047,4.1875,8.9274,5.6808,12.464,3.3124,2.8382-1.901,3.9031-5.0407,5.108-8.072,1.664,0.97489,4.4447,1.2018,6.5849-0.23168,2.2333-1.4959,3.0976-4.0294,3.9329-5.5999l-3.9517-3.0823s-1.1004,1.0741-1.8914,1.6038c-0.97708,0.65444-2.1433,0.0202-2.7978-0.95691-0.28047-0.41875-7.3608-13.807-7.3608-13.807m-17.85,54.418,5.305-3.1489-13.712-27.415,4.8854-3.2722-2.152-4.018-4.7458,3.1787-2.0278-4.0338c-0.88926-1.8308-1.4076-4.5167,0.50002-5.7944,0.74444-0.49862,1.3809-0.65531,2.1574-0.70359l-1.9672-4.7484c-1.0719-0.0909-2.3606,0.0983-3.5703,0.90856-4.7458,3.1787-4.997,9.1434-2.2984,14.48l1.8092,3.5062-3.0708,2.0568,2.1521,4.018,2.9778-1.9945,13.757,26.98m-31.315-14.343c1.3493-0.90375,3.7116-0.1944,4.8024,1.4341,1.9633,2.9312,2.4584,9.205-0.33329,11.075-1.5819,1.0596-3.7731,0.50516-4.8327-1.0768-2.4931-3.7222-2.6142-9.4376,0.36358-11.432m5.9091-11.102-5.4902,3.6773,0.53109,1.3967c-1.506,0.26729-3.6484,0.69128-5.5561,1.969-6.4208,4.3006-5.7796,13.509-1.5725,19.791,2.8047,4.1875,8.9274,5.6808,12.464,3.3124,2.8382-1.901,3.9031-5.0407,5.108-8.072,1.664,0.97488,4.4447,1.2018,6.5849-0.23168,2.2333-1.4959,3.0976-4.0294,3.9329-5.5999l-3.9517-3.0823s-1.1004,1.0741-1.8914,1.6038c-0.97707,0.65444-2.1433,0.0202-2.7978-0.95691-0.28047-0.41875-7.3608-13.807-7.3608-13.807m-51.397,18.249,2.9478,5.7093,7.8632-5.2667,14.707,27.894,6.1882-4.1448-14.707-27.894,7.0257-4.7057-2.9478-5.7093-21.077,14.117m3.3166,22.515,4.9776-3.7384c-2.0722-2.9931-5.6951-4.8802-10.301-1.7949-4.0479,2.7112-7.063,8.977-4.009,13.537,1.9633,2.9312,4.5574,3.081,6.9172,2.5788,2.9496-0.62765,5.6952-2.2644,6.599-0.9151,0.99724,1.4889-0.70804,2.9681-2.1969,3.9653-2.1403,1.4335-3.4435,2.1042-5.8023,3.0102l2.9461,4.9016c1.3967-0.5311,3.6621-1.5766,5.7558-2.979,4.6528-3.1164,7.9953-8.7927,4.8789-13.445-4.2694-6.3743-12.238,0.4458-14.077-2.2993-0.84142-1.2562-0.31687-2.8882,0.93937-3.7296,1.1167-0.74794,2.6248-0.006,3.3723,0.90907m-26.62,16.415c1.3493-0.90375,3.7116-0.1944,4.8024,1.4341,1.9633,2.9312,2.4584,9.205-0.33329,11.075-1.5819,1.0596-3.7731,0.50516-4.8327-1.0768-2.4931-3.7222-2.6142-9.4376,0.36358-11.432m5.9091-11.102-5.4902,3.6773,0.53109,1.3967c-1.506,0.26729-3.6484,0.69128-5.5561,1.969-6.4208,4.3006-5.7796,13.509-1.5725,19.791,2.8047,4.1875,8.9274,5.6808,12.464,3.3124,2.8382-1.901,3.9031-5.0407,5.108-8.072,1.664,0.97488,4.4446,1.2019,6.5849-0.23168,2.2333-1.4959,3.0976-4.0294,3.9329-5.5999l-3.9517-3.0823s-1.1004,1.0741-1.8914,1.6038c-0.97708,0.65444-2.1433,0.0202-2.7978-0.95692-0.28048-0.41874-7.3608-13.807-7.3608-13.807m-12.348,32.4-5.4546-1.4016c-0.53817,2.5173-1.0926,4.7084-3.4189,6.2666-2.2798,1.527-5.3722,0.83478-6.8992-1.4451-1.901-2.8382-3.403-7.8982-0.14605-10.08,1.5819-1.0596,3.511,0.41177,4.5083,1.9006l5.2111-3.4904c-0.21902-0.72952-0.5311-1.3967-0.93622-2.0016-2.3684-3.5361-8.0702-4.3004-11.746-1.8384-6.3743,4.2694-7.1785,13.031-2.9091,19.405,3.4904,5.2111,10.405,6.5784,15.849,2.9323,3.8618-2.5866,5.6698-6.8306,5.942-10.248m-48.949,8.6565-5.3972,3.615s8.1403,15.172,9.3869,17.033c1.7763,2.6521,5.1478,3.1573,7.7068,1.4433,3.4896-2.3373,4.0563-6.0195,4.5918-9.7483,2.0222,1.409,5.6592,2.6126,8.4043,0.77395,2.0472-1.3712,3.8425-4.3261,4.522-6.1292l-5.0074-2.847c-0.37091,0.85503-0.77342,1.4616-1.6109,2.0226-0.93056,0.62328-2.0814-0.0887-2.7047-1.0192-0.62328-0.93055-7.3292-13.559-7.3292-13.559l-5.4903,3.6773c3.0584,6.5788,6.3723,16.357,2.557,18.912-0.69791,0.46745-1.6456,0.36077-2.113-0.33713-3.428-5.118-7.5162-13.838-7.5162-13.838m-34.704,7.0686s12.276,24.265,14.364,27.382c2.7112,4.0479,8.7523,3.7087,12.94,0.90392,3.9083-2.6178,7.5625-7.8288,10.287-12.215l-5.4112-2.8461c-2.4458,3.795-3.9619,6.5629-7.8702,9.1807-2.0007,1.34-4.6444-0.19188-5.8598-2.0064-0.87259-1.3028-12.773-24.202-12.773-24.202l-5.6764,3.802"
             style="fill:#e2d3c3;fill-opacity:1" />
        </g>
      </g>
    </g>
  </g>
</svg>
