<svg version="1" xmlns="http://www.w3.org/2000/svg" width="521.333" height="521.333" viewBox="0 0 391.000000 391.000000"><path d="M176.7 1.5c-18.4 2.9-40.4 12.3-56.3 24C93 45.8 74.8 74.7 67.3 110.1c-1.9 9.1-2.4 36-.9 45.4 3.3 20.4 11.1 40.5 21.6 56 5.7 8.4 11.9 23.9 13.3 33.5 1.7 10.8 2.4 18 2.6 24.2.1 1.6 2.4 2.6 10.1 4.4 2.3.5 44.9 11.4 71.4 18.3 13.1 3.4 24.2 5.9 24.6 5.4.3-.4 3.3-4.9 6.6-9.8 3.3-5.1 10-13.1 15.4-18.5 7.7-7.7 11.7-10.7 20.7-15.8 19.9-11.2 32.4-21.9 44.7-38.2 17.8-23.7 27.2-51.4 27.4-81.2.3-49.5-24.7-93.5-66.6-117.4C246.4 9.7 230 3.9 216 1.5c-7.8-1.3-30.8-1.3-39.3 0zm63 75.9c.2.2-.4 2.4-1.5 4.8-1.1 2.3-3.6 8.6-5.7 13.8-2 5.2-4.3 10.8-5 12.5-.8 1.6-8.2 19.9-16.5 40.5-8.4 20.6-16 39.3-17 41.5-.9 2.2-3 7.3-4.6 11.2-1.5 4-3.4 7.3-4.1 7.3-2.5 0-13.3-3.3-13.3-4.1 0-.4 6.8-17.3 15.1-37.6 8.3-20.2 17.5-42.7 20.5-50 8.8-21.7 17.6-42.8 18-43.5.4-.6 13.1 2.6 14.1 3.6zm-75.2 2.7c-.4.6-1.7 4.7-2.9 9.2l-2.1 8.2-9.5 4.9c-5.2 2.7-15.2 7.8-22.2 11.2l-12.6 6.3-4.4-6.6c-2.3-3.7-3.8-6.8-3.2-7 .5-.2 12.9-6.3 27.4-13.7 24.8-12.5 31.1-15.2 29.5-12.5zm116.8 69.2l3.7 5.7-6.9 3.4-6.9 3.5-13-19.7c-7.1-10.8-13.2-20.2-13.6-20.9-.4-.7 0-3.6.8-6.5s2-7.3 2.6-9.7l1.1-4.3 14.2 21.4c7.8 11.8 15.9 23.9 18 27.1zm-170.2-30.1c2.9 4.6 10.9 16.8 17.7 27.3l12.5 19-2.4 9.3c-1.3 5.1-2.7 9.1-3 9-1.4-.5-35.3-52.3-35.3-53.8 0-1.4 4.7-19 5-19 .1 0 2.6 3.7 5.5 8.2zm171.3 46.3c-.9 3.3-1.8 6.8-2 7.8-.2 1-.6 2.7-.9 3.8-.5 1.3-9.7 6.4-29.6 16.3-15.9 7.9-28.9 14.2-28.9 13.9 0-1.2 4.2-16.9 4.9-18 .6-1.1 57.2-30.3 57.8-29.9.1.1-.5 2.9-1.3 6.1zm-181.8 113c-2.6 3.9-3.9 12-2.3 13.3 1 .8 7.6 2.7 15.7 4.7 3.9.9 62.4 15.9 69 17.6 18 4.9 22 5.6 22.8 4.5 2.6-3.3 4.3-12.1 2.8-14-.6-.8-4-2.1-7.6-2.9-6.4-1.5-33.7-8.5-52-13.3-5.2-1.4-10.4-2.7-11.5-3-1.1-.2-9.5-2.4-18.7-4.8l-16.7-4.3-1.5 2.2zM94.5 301c-1.8 3.4-2.7 10.1-1.6 11.8.6 1 3.8 2 13.1 4.1 1.9.5 15.2 3.9 29.5 7.6 14.3 3.7 26.7 6.8 27.5 7 .8.2 6 1.6 11.5 3 5.5 1.5 10.7 2.8 11.5 3 .8.1 4.2 1 7.5 1.9 5.6 1.5 6.1 1.4 7.3-.1 3.2-4.4 4.1-14.4 1.2-14.9-1.8-.2-53.4-13.4-67-17.1-5.2-1.4-10.2-2.6-11-2.8-.8-.2-6.9-1.7-13.5-3.4S98 298 97.3 298c-.7 0-2 1.4-2.8 3zm-5 20.3c-.9 1.4-1.9 5-2.2 8-.5 5.1-.4 5.4 1.8 5.9 2.1.5 31.5 8 67.4 17.3 5.5 1.4 10.9 2.8 11.9 3 1 .2 5.5 1.4 10 2.6 4.5 1.1 8.8 2.2 9.6 2.4.8.2 2.7.6 4.1 1 2.3.6 2.8.2 4.2-2.7.8-1.8 1.8-5.2 2.1-7.6.7-5.3 2.1-4.6-23.4-11.1-10.7-2.7-33-8.4-49.5-12.7-16.5-4.2-31-7.9-32.2-8.1-1.5-.4-2.6.3-3.8 2zm-6 22.6c-1.6 3.7-2.4 10.5-1.3 11.6.6.6 2.9 1.2 37.8 10.1 14 3.6 35.1 9 46.8 12 11.7 3 21.8 5.2 22.3 4.8 1.8-1.1 3.9-7.1 3.9-11.2v-4l-14.2-3.6c-35.8-9-77.8-19.8-82.3-21-10.7-3-11.1-2.9-13 1.3zm13.6 23.8c5.8 6.5 11.6 11.6 15.2 13.5 3.2 1.6 12.8 4.5 20.7 6.3.8.1 4.1 1 7.3 1.8 3.2.9 8.4 1.4 11.5 1.3 8.3-.4 26.3-6.1 20-6.3-.7 0-9.4-2.2-19.3-4.7-37.8-9.9-56.4-14.6-57.1-14.6-.4 0 .3 1.2 1.7 2.7z"/></svg>