<?xml version="1.0" encoding="UTF-8" standalone="no"?>
<svg
  <path
     d="m 4.3030335,2.0109766 c 0,0 -3.30390005,26.9921204 -3.30369005,30.7438464 -5e-5,4.87197 5.20796005,7.952003 10.24815955,7.952099 4.70401,-3.9e-5 10.64001,-2.296042 15.34457,-4.424136 l -2.91205,-5.375999 c -4.144,1.791992 -6.94398,3.247994 -11.64799,3.248031 -2.4079795,-4.5e-5 -3.7520095,-2.744019 -3.7520495,-4.927979 10e-6,-1.568026 2.8559095,-27.2163584 2.8559095,-27.2163584 l -6.8320395,-1.3e-5 m 32.7663395,13.4408774 -6.496,-9e-6 c 0,0 -1.67981,17.135703 -1.67972,19.375643 -5e-5,3.192003 2.52002,5.487979 5.6,5.48798 4.20003,9e-6 6.72001,-2.743977 9.24,-5.544044 0.89604,2.296017 3.24803,5.320008 6.552,5.320008 2.46399,1e-6 5.6,-1.455995 7.16799,-2.57596 l -2.57605,-5.152033 c -0.78399,0.50399 -1.45597,0.783963 -2.46399,0.784014 -1.12001,-3e-6 -1.67996,-1.23199 -1.68001,-2.351961 -1e-5,-1.12 1.45609,-15.344166 1.45609,-15.344166 l -6.60802,-5.6e-5 c -1.12002,7.167983 -3.80821,17.13637 -8.4,17.135986 -0.83999,-5e-6 -1.56802,-0.616027 -1.56797,-1.455984 0,-6.15996 1.45598,-15.68004 1.45598,-15.68004 m 45.485659,20.048684 -3.751965,-4.199989 c -1.848014,1.792006 -3.527994,3.303942 -6.327934,3.303991 -2.74394,4e-6 -4.92805,-2.296039 -4.928,-5.040047 0,-3.416019 1.56794,-8.455977 5.48814,-8.456238 1.90399,-4.4e-5 2.68797,2.29598 2.68804,4.087968 l 6.272042,-3e-5 c 0.224002,-0.728007 0.335995,-1.456005 0.336027,-2.184033 4.8e-5,-4.255976 -4.311959,-8.06403 -8.736089,-8.064054 -7.672,-5.2e-5 -13.21597,6.831982 -13.21586,14.503725 3e-5,6.272038 4.98412,11.256015 11.53631,11.256228 4.64801,9e-6 8.511964,-2.51997 10.639896,-5.207836 M 110.84591,15.450971 h -6.60793 l -0.33601,1.455997 c -1.40001,-0.616008 -3.41599,-1.455976 -5.712047,-1.456012 -7.727986,-10e-6 -12.319696,8.00761 -12.320146,15.568246 -5e-5,5.039989 4.255973,9.687963 8.512364,9.688291 3.41602,5e-6 6.048029,-2.015999 8.736039,-3.864029 0.84002,1.735992 3.02393,3.472007 5.59999,3.47199 2.688,-4.2e-5 4.81599,-1.624018 6.38398,-2.464023 l -1.56798,-4.760039 c 0,0 -1.512,0.280045 -2.46399,0.279957 -1.176,-2e-6 -1.792,-1.175958 -1.79203,-2.352026 -1e-5,-0.503996 1.56786,-15.567802 1.56786,-15.567802 m -11.087743,5.934895 c 1.624013,3e-6 3.191963,1.903979 3.191993,3.864046 0,3.527957 -3.079999,9.016061 -6.440121,9.016181 -1.903987,4.5e-5 -3.415999,-1.680009 -3.416009,-3.584044 5e-6,-4.479991 3.07999,-9.29602 6.663959,-9.295938 m 31.252621,1.174731 6.21603,-0.336024 c -0.0561,-3.639989 -2.01594,-7.224021 -7.55971,-7.223772 -4.87198,-4.8e-5 -10.86396,3.527991 -10.86419,9.016208 0,3.527958 2.07194,5.096029 4.31205,5.992 2.79997,1.119962 5.992,1.287989 5.99204,2.912016 -1e-5,1.792013 -2.24001,2.072022 -4.03199,2.071997 -2.57598,-4.9e-5 -4.03201,-0.168025 -6.496,-0.727942 l -0.27996,5.711988 c 1.45602,0.335997 3.92004,0.728032 6.44002,0.727988 5.60003,1.2e-5 11.53599,-2.856044 11.53573,-8.455673 6e-5,-7.671993 -10.41603,-6.440025 -10.41632,-9.744187 -2e-5,-1.511962 1.34401,-2.575996 2.85599,-2.575978 1.34405,1.5e-5 2.18415,1.455709 2.29599,2.631976 m 9.77405,-20.5527374 -0.72801,6.3840115 9.46402,1.71e-5 -3.30362,31.3601198 7.44803,1.3e-5 3.30364,-31.3601199 8.45599,5.7e-5 0.72805,-6.3840115 -25.36789,-1.98e-4 m 52.8584,13.4396854 h -6.60794 l -0.336,1.455996 c -1.40001,-0.616007 -3.41597,-1.455976 -5.71203,-1.456011 -7.72799,-1.1e-5 -12.3197,8.00761 -12.32015,15.568246 -5e-5,5.039989 4.25597,9.687963 8.51236,9.68829 3.41602,5e-6 6.04803,-2.015998 8.73603,-3.864028 0.84001,1.735992 3.02406,3.471979 5.59999,3.47199 2.688,-4.2e-5 4.81598,-1.624018 6.38397,-2.464023 l -1.56797,-4.760039 c 0,0 -1.512,0.280045 -2.46398,0.279957 -1.17599,4e-6 -1.792,-1.175958 -1.79204,-2.352017 0,-0.503999 1.56785,-15.567804 1.56785,-15.567804 m -11.08774,5.934888 c 1.62402,3e-6 3.19198,1.903979 3.192,3.864046 0,3.527957 -3.07998,9.016061 -6.44012,9.016181 -1.90397,4.5e-5 -3.41599,-1.680009 -3.416,-3.584044 1e-5,-4.479991 3.08,-9.296021 6.66395,-9.295938 m 18.03641,29.343998 6.16001,0.335957 3.86378,-30.408426 5.88,6e-6 0.44801,-4.535933 -5.71198,-7e-6 0.56,-4.479945 c 0.28,-2.0159898 1.34403,-4.5360228 3.64002,-4.5360129 0.89599,10e-7 1.51199,0.2240031 2.18401,0.6160101 l 1.00803,-5.0399466 c -0.84001,-0.672034 -2.01601,-1.231996 -3.47199,-1.231987 -5.71198,-5e-6 -9.24004,4.8159705 -9.96771,10.7516444 l -0.44802,3.919939 -3.69597,-2e-6 -0.44794,4.535992 3.58404,8e-6 -3.58431,30.072052 m 45.11407,-35.279585 h -6.60794 l -0.336,1.455998 c -1.40002,-0.616 -3.41597,-1.455975 -5.71203,-1.456014 -7.72799,-7e-6 -12.31971,8.00761 -12.32016,15.568247 -5e-5,5.03999 4.25598,9.687965 8.51237,9.68829 3.41602,8e-6 6.04802,-2.015997 8.73603,-3.864027 0.84001,1.736 3.02407,3.471981 5.59999,3.471989 2.688,-4e-5 4.81598,-1.624016 6.38397,-2.464024 l -1.56797,-4.760038 c 0,0 -1.512,0.280045 -2.46399,0.279957 -1.176,-2e-6 -1.792,-1.175958 -1.79203,-2.352017 10e-6,-0.503999 1.56785,-15.567802 1.56785,-15.567802 m -11.08773,5.934888 c 1.624,2e-6 3.19196,1.903979 3.192,3.864045 0,3.527957 -3.08,9.016061 -6.44013,9.01618 -1.90398,4.5e-5 -3.41599,-1.68 -3.416,-3.584044 0,-4.479992 3.07999,-9.296018 6.66395,-9.295939 m 27.3323,-1.288433 0.22397,-4.64797 -6.38397,3.9e-5 -2.5756,24.303671 6.15996,3e-6 c 0.33605,-6.495993 1.68015,-12.824228 5.71196,-15.848012 l 1.39996,5.487972 4.98397,-2.296008 c -0.39198,-2.464028 -0.72798,-5.151977 -0.72796,-7.672043 1e-5,-1.400004 0.11202,-2.799974 0.39199,-4.19999 -0.336,-0.224002 -0.61603,-0.447989 -1.12004,-0.448027 -2.85601,3.9e-5 -6.38401,3.024023 -8.06399,5.319991 m 24.81547,-5.095657 c -7.72799,-7e-6 -13.10395,6.663871 -13.10378,14.223733 -10e-6,6.327978 5.20828,11.480183 11.53577,11.479854 4.14395,-1e-6 8.17599,-1.904061 10.19202,-2.912033 l -2.23996,-5.039952 c -2.51999,1.064018 -3.80796,1.623978 -6.38401,1.624012 -2.688,4.2e-5 -5.48799,-1.343979 -5.488,-4.143985 1.06401,0.111999 2.12804,0.11199 3.13601,0.112035 6.44001,5.3e-5 11.75998,-2.07199 11.75991,-7.727809 -4e-5,-4.704009 -3.80804,-7.61602 -9.40807,-7.616032 m -4.9839,8.848214 c 0.39198,-1.120003 2.35196,-3.975968 4.75999,-3.976016 1.34403,2.2e-5 2.51997,0.783986 2.51997,2.015978 -1e-5,1.792008 -2.12799,2.463967 -3.92,2.464026 -1.34403,-2.3e-5 -2.632,-0.168022 -3.35997,-0.50397 m 27.49191,-21.8395454 -6.38397,4e-5 c -1.34421,12.6003004 -3.47206,32.0320544 -3.47171,32.2561544 -5e-5,3.192002 2.576,5.99199 5.824,5.991995 3.35994,-5e-6 6.66399,-2.240014 8.06404,-3.079966 l -2.80001,-4.479999 c -0.78402,0.391988 -1.45601,0.727983 -2.46404,0.728017 -1.06401,-7e-6 -1.90404,-0.448038 -1.90404,-2.296026 0,-0.280002 1.90411,-17.752157 3.13599,-29.1205974 m 19.99515,6.1043315 1.96002,4.91e-5 c 2.688,-4.2e-5 5.37599,1.624027 5.37603,4.3120198 -6e-5,3.807997 -3.58398,6.383978 -7.39206,6.384 -0.50398,9e-6 -0.89599,-0.111992 -1.23201,-0.336005 l 1.28801,-10.3600388 m -11.5356,1.9596648 c 1.39998,-0.4479848 2.632,-0.7840118 3.864,-1.0639688 l -3.13647,30.7439298 6.94397,6e-6 1.79203,-14.504122 c 1.40002,-0.336036 3.69599,-0.504056 5.6,-0.503963 2.91196,-2e-6 6.15997,1.231994 6.16005,4.144012 -10e-6,2.632003 -1.95998,4.928059 -4.59199,4.928055 -2.01601,-4e-6 -3.35999,-0.335952 -5.03995,-1.008026 l -1.12001,6.272029 c 2.07198,1.231976 4.312,1.624031 7.16802,1.62399 6.15996,3e-6 11.42388,-4.647834 11.42388,-10.807794 -5e-5,-4.535988 -3.80801,-8.623993 -6.60764,-9.631753 2.24,-2.46403 4.14396,-5.095976 4.14399,-8.903986 -4e-5,-6.9999724 -7.78388,-10.1918824 -14.78392,-10.1919394 -5.48796,-4.8e-5 -11.47996,1.848023 -13.83234,2.631807 l 2.01595,6.2719854 m 53.33096,1.679658 6.384,2.128045 c 0.44796,-1.063975 1.17598,-3.415989 1.17595,-5.6559949 -4e-5,-4.7040085 -4.19996,-7.22402652 -8.5681,-7.22409452 -8.68003,-1.4e-5 -16.85616,5.20743452 -16.85607,14.50400942 0,5.095989 3.91998,7.000015 7.95187,8.2879 4.31198,1.343933 8.73597,1.959979 8.73605,4.87202 10e-6,3.975934 -4.92797,4.927966 -8.90405,4.927997 -3.69597,-2e-6 -5.82397,-0.671991 -9.40801,-1.567954 l -2.01606,6.439998 c 3.86404,1.119974 7.22399,2.072005 11.98408,2.071976 7.89601,1.3e-5 16.23994,-4.087991 16.23974,-11.983667 -5e-5,-6.999974 -5.20801,-8.903956 -9.85615,-10.248089 -3.69598,-1.063973 -7.00001,-1.792007 -7.00001,-4.42401 -3e-5,-3.808052 3.472,-6.5520159 7.33598,-6.5520288 1.45598,-9e-6 2.912,0.8400109 2.91205,2.296028 -2e-5,0.8399928 -0.112,2.1280368 -0.112,2.1280368 m 49.66667,-7.0837954 c -0.50164,5.5302874 -1.63167,11.3052824 -4.89619,17.6870564 -5.33048,10.420194 -12.6424,15.737567 -22.07724,20.409335 l 1.87272,3.348207 c 9.87889,-3.941407 19.07145,-9.492431 24.80966,-20.709515 3.7235,-7.278911 3.84966,-12.812995 4.07167,-20.6248184 L 420.7299,4.6683356 M 391.98985,20.196818 c -1.24657,1.861101 -0.75491,4.347228 1.10617,5.593782 1.86112,1.246553 4.34725,0.754916 5.59379,-1.106186 1.24656,-1.861104 0.75493,-4.347228 -1.10618,-5.593783 -1.86111,-1.246555 -4.34723,-0.754917 -5.59378,1.106187 m 6.51324,-9.724261 c -1.24655,1.861102 -0.75491,4.347229 1.1062,5.593782 1.86108,1.246554 4.34722,0.754916 5.59378,-1.106185 1.24654,-1.861104 0.75491,-4.347229 -1.1062,-5.5937828 -1.86109,-1.2465551 -4.34722,-0.754916 -5.59378,1.1061858"
     style="display:inline;fill:#000000;fill-opacity:1;stroke-width:0.99999994"
     id="path3029" />
</svg>
