<?xml version="1.0" encoding="UTF-8" standalone="no"?>
<!-- Created with Inkscape (http://www.inkscape.org/) -->

<svg
   xmlns:dc="http://purl.org/dc/elements/1.1/"
   xmlns:cc="http://creativecommons.org/ns#"
   xmlns:rdf="http://www.w3.org/1999/02/22-rdf-syntax-ns#"
   xmlns:svg="http://www.w3.org/2000/svg"
   xmlns="http://www.w3.org/2000/svg"
   xmlns:sodipodi="http://sodipodi.sourceforge.net/DTD/sodipodi-0.dtd"
   xmlns:inkscape="http://www.inkscape.org/namespaces/inkscape"
   width="438.64786"
   height="63.849941"
   id="svg3211"
   version="1.1"
   inkscape:version="0.48.5 r10040"
   sodipodi:docname="logo-lucastafarelbs.svg">
  <defs
     id="defs3213" />
  <sodipodi:namedview
     id="base"
     pagecolor="#ffffff"
     bordercolor="#666666"
     borderopacity="1.0"
     inkscape:pageopacity="0.0"
     inkscape:pageshadow="2"
     inkscape:zoom="0.7"
     inkscape:cx="220.95427"
     inkscape:cy="49.218991"
     inkscape:document-units="px"
     inkscape:current-layer="layer1"
     showgrid="false"
     fit-margin-top="5"
     fit-margin-left="5"
     fit-margin-right="5"
     fit-margin-bottom="5"
     inkscape:window-width="616"
     inkscape:window-height="498"
     inkscape:window-x="209"
     inkscape:window-y="144"
     inkscape:window-maximized="0" />
  <metadata
     id="metadata3216">
    <rdf:RDF>
      <cc:Work
         rdf:about="">
        <dc:format>image/svg+xml</dc:format>
        <dc:type
           rdf:resource="http://purl.org/dc/dcmitype/StillImage" />
        <dc:title />
      </cc:Work>
    </rdf:RDF>
  </metadata>
  <g
     inkscape:label="Layer 1"
     inkscape:groupmode="layer"
     id="layer1"
     transform="translate(-204.94013,-369.89898)">
    <g
       style="font-size:56px;font-style:normal;font-variant:normal;font-weight:bold;font-stretch:normal;line-height:125%;letter-spacing:0px;word-spacing:0px;fill:#1a1a1a;fill-opacity:1;stroke:none;font-family:Comfortaa;-inkscape-font-specification:Comfortaa Bold"
       id="text3100" />
    <g
       style="fill:#1a1a1a"
       id="g3137"
       transform="matrix(0.83084931,0.55649747,-0.55649747,0.83084931,326.91421,-397.34564)">
      <g
         id="text3112"
         style="font-size:56px;font-style:normal;font-variant:normal;font-weight:bold;font-stretch:normal;line-height:125%;letter-spacing:0px;word-spacing:0px;fill:#1a1a1a;fill-opacity:1;stroke:none;font-family:Comfortaa;-inkscape-font-specification:Comfortaa Bold"
         transform="matrix(0.99312561,-0.11705347,0.11705347,0.99312561,0,0)" />
      <g
         id="text3112-0"
         style="font-size:56px;font-style:normal;font-variant:normal;font-weight:bold;font-stretch:normal;line-height:125%;letter-spacing:0px;word-spacing:0px;fill:#1a1a1a;fill-opacity:1;stroke:none;font-family:Comfortaa;-inkscape-font-specification:Comfortaa Bold">
        <g
           id="g2993" class="logotipo">
          <path
             d="m 669.15604,494.94757 c 0,2.23999 1.79201,4.032 4.032,4.032 2.24,0 4.032,-1.79201 4.032,-4.032 0,-2.24 -1.792,-4.032 -4.032,-4.032 -2.23999,0 -4.032,1.792 -4.032,4.032 m 0,11.704 c 0,2.23999 1.79201,4.032 4.032,4.032 2.24,0 4.032,-1.79201 4.032,-4.032 0,-2.24 -1.792,-4.032 -4.032,-4.032 -2.23999,0 -4.032,1.792 -4.032,4.032 m 15.23719,-28.89598 c 2.66082,4.87404 4.93571,10.30107 5.77475,17.4198 1.36999,11.62352 -1.74599,20.11062 -6.98507,29.24265 l 3.41915,1.73974 c 6.01451,-8.77233 10.56317,-18.49965 9.08829,-31.01302 -0.95702,-8.11979 -3.93187,-12.78767 -8.0947,-19.40186 l -3.20242,2.01269 m -37.3226,33.52416 6.48837,-1.78463 c -0.2199,-1.13334 -0.92393,-3.49263 -2.17047,-5.35373 -2.61777,-3.90831 -7.50972,-3.66476 -11.13886,-1.23398 -7.21176,4.83039 -11.10656,13.70738 -5.93336,21.43096 2.83591,4.234 7.15242,3.63447 11.21917,2.46081 4.33054,-1.28296 8.34903,-3.2331 9.96955,-0.81367 2.21263,3.30345 -1.35201,6.83685 -4.65546,9.04948 -3.07082,2.05682 -5.21285,2.68271 -8.68922,3.93276 l 1.90885,6.47257 c 3.83367,-1.21976 7.15512,-2.29862 11.10997,-4.94755 6.56037,-4.3941 11.21802,-12.43404 6.82392,-18.99442 -3.89548,-5.81594 -9.28213,-4.49964 -13.89183,-3.0297 -3.66294,1.17279 -6.8132,2.40659 -8.27789,0.2198 -2.11915,-3.16387 -0.76147,-7.37588 2.44893,-9.52619 1.20972,-0.81026 2.8869,-0.9226 3.69716,0.28711 0.46745,0.69791 1.09117,1.83038 1.09117,1.83038 m -45.24443,28.28239 c 0.91388,-1.15131 1.7505,-2.11608 2.61829,-3.03433 l 14.50342,27.28881 5.76941,-3.86432 -6.58255,-13.04788 c 0.9762,-1.05826 2.79034,-2.47556 4.37228,-3.53513 2.41943,-1.62052 5.80363,-2.40442 7.42415,0.015 1.4647,2.18679 1.11396,5.18516 -1.07284,6.64986 -1.67499,1.1219 -2.97864,1.59066 -4.74843,1.96725 l 2.55981,5.83437 c 2.40711,-0.12947 4.48638,-1.05033 6.85927,-2.63968 5.11804,-3.42802 6.90502,-10.21922 3.477,-15.33724 -2.52427,-3.76874 -7.96311,-5.04611 -10.85043,-4.32541 0.48989,-3.29377 0.60712,-6.54014 -1.51202,-9.70401 -3.89548,-5.81594 -12.13915,-4.13624 -17.9551,-0.24075 -4.55969,3.05405 -8.50974,7.924 -10.0276,9.88426 l 5.16534,4.08919 m 8.49395,-8.04822 1.62846,-1.09073 c 2.23332,-1.49587 5.3704,-1.64243 6.86626,0.59089 2.11914,3.16387 0.57492,7.29863 -2.58896,9.41777 -0.41874,0.28048 -0.80676,0.40557 -1.21058,0.40644 l -4.69518,-9.32437 m -20.01011,6.05594 -5.30414,3.55268 c 5.89519,11.21662 14.94101,28.54593 15.06567,28.73204 1.77633,2.65206 5.47481,3.5449 8.1734,1.73741 2.79165,-1.86984 4.29022,-5.56961 4.98595,-7.04662 l -4.81948,-2.16401 c -0.43325,0.76198 -0.80459,1.41512 -1.64208,1.97607 -0.88403,0.59211 -1.83126,0.68734 -2.85966,-0.84806 -0.15582,-0.23264 -8.29702,-15.80882 -13.59966,-25.93951 m -10.68822,33.44526 c -0.29759,-1.1487 -0.25848,-4.61234 1.74221,-5.95239 1.11666,-0.74793 2.53003,-0.75098 3.21564,0.27262 0.99723,1.48888 -0.39684,3.23144 -1.88572,4.22869 -1.11667,0.74793 -2.2803,1.32511 -3.07213,1.45108 m -0.78294,-10.12494 c -6.42079,4.30061 -7.17895,12.82912 -2.97183,19.11034 3.52151,5.25761 10.71566,6.63991 15.97327,3.1184 3.44304,-2.30613 5.73345,-6.13187 6.8475,-8.09126 l -4.66585,-2.94092 c -1.50163,2.28638 -2.26013,3.46844 -4.40039,4.90198 -2.23332,1.49586 -5.30764,1.93739 -6.86583,-0.38898 0.94635,-0.49906 1.83037,-1.09118 2.66787,-1.65212 5.35067,-3.58385 8.61772,-8.26594 5.47018,-12.96522 -2.61777,-3.90831 -7.40216,-4.2086 -12.05492,-1.09222 m -17.78234,18.04398 -2.40049,-3.98644 -5.30414,3.55267 11.38485,21.6265 5.11803,-3.42802 c -3.33584,-5.58418 -5.7407,-11.58974 -4.07356,-16.34601 l 4.21725,3.7806 2.86323,-4.68121 c -1.6969,-1.82907 -3.47194,-3.87542 -4.87431,-5.96915 -0.77909,-1.16319 -1.46514,-2.38871 -2.01159,-3.70771 -0.40382,8.7e-4 -0.76112,-0.0294 -1.17986,0.25105 -2.37291,1.58936 -3.6213,6.06517 -3.73941,8.90772 m -21.99232,16.28053 c 1.3493,-0.90375 3.71165,-0.1944 4.80238,1.43406 1.96332,2.93123 2.45837,9.20495 -0.33329,11.07478 -1.58193,1.05958 -3.7731,0.50517 -4.83267,-1.07676 -2.4931,-3.72221 -2.61417,-9.4376 0.36358,-11.43208 m 5.90909,-11.10236 -5.49025,3.67733 0.53109,1.3967 c -1.50599,0.2673 -3.64844,0.69128 -5.55607,1.969 -6.42079,4.30061 -5.77963,13.50949 -1.57251,19.79071 2.80474,4.18747 8.92745,5.68081 12.46354,3.31236 2.83818,-1.90099 3.90308,-5.0407 5.10799,-8.07196 1.66399,0.97489 4.44466,1.20185 6.58492,-0.23168 2.23332,-1.49586 3.09761,-4.0294 3.93293,-5.59989 l -3.9517,-3.08226 c 0,0 -1.10042,1.07407 -1.89139,1.60385 -0.97708,0.65444 -2.14333,0.0202 -2.79777,-0.95691 -0.28047,-0.41875 -7.36078,-13.80725 -7.36078,-13.80725 m -17.8498,54.41825 5.30501,-3.14886 -13.71157,-27.41477 4.88539,-3.2722 -2.15205,-4.01805 -4.74581,3.17872 -2.02783,-4.03385 c -0.88926,-1.83081 -1.40761,-4.51666 0.50002,-5.79438 0.74444,-0.49862 1.3809,-0.65531 2.15737,-0.70359 l -1.96725,-4.74843 c -1.07188,-0.0909 -2.3606,0.0983 -3.57031,0.90856 -4.74581,3.17871 -4.99696,9.1434 -2.29845,14.48046 l 1.80925,3.50624 -3.07082,2.05681 2.15206,4.01804 2.97776,-1.99448 13.75723,26.97978 m -31.31538,-14.34324 c 1.3493,-0.90375 3.71164,-0.1944 4.80238,1.43406 1.96332,2.93123 2.45836,9.20495 -0.33329,11.07478 -1.58194,1.05958 -3.7731,0.50516 -4.83267,-1.07676 -2.49311,-3.72221 -2.61417,-9.4376 0.36358,-11.43208 m 5.90909,-11.10236 -5.49025,3.67733 0.53109,1.3967 c -1.50599,0.26729 -3.64844,0.69128 -5.55607,1.969 -6.42079,4.3006 -5.77963,13.50949 -1.57251,19.79071 2.80474,4.18747 8.92745,5.68081 12.46354,3.31236 2.83818,-1.901 3.90308,-5.0407 5.10799,-8.07196 1.66399,0.97488 4.44466,1.20185 6.58492,-0.23168 2.23332,-1.49587 3.09761,-4.0294 3.93293,-5.59989 l -3.9517,-3.08226 c 0,0 -1.10043,1.07406 -1.8914,1.60385 -0.97707,0.65444 -2.14332,0.0202 -2.79776,-0.95691 -0.28047,-0.41875 -7.36078,-13.80725 -7.36078,-13.80725 m -51.39698,18.24914 2.94782,5.70927 7.86316,-5.26669 14.70663,27.8941 6.18817,-4.14479 -14.70664,-27.8941 7.02567,-4.70574 -2.94783,-5.70928 -21.07698,14.11723 m 3.31662,22.51468 4.97758,-3.73835 c -2.07218,-2.99313 -5.69513,-4.88016 -10.30136,-1.79493 -4.04789,2.71125 -7.06302,8.97702 -4.00897,13.53672 1.96332,2.93123 4.55743,3.08095 6.91716,2.57883 2.94965,-0.62765 5.69522,-2.2644 6.59897,-0.9151 0.99724,1.48888 -0.70804,2.96808 -2.19692,3.96532 -2.14026,1.43353 -3.44349,2.10421 -5.80233,3.01015 l 2.94607,4.90163 c 1.3967,-0.5311 3.66207,-1.57662 5.7558,-2.97898 4.65276,-3.11639 7.99532,-8.79267 4.87894,-13.44542 -4.26945,-6.37428 -12.23798,0.4458 -14.07664,-2.29932 -0.84142,-1.25624 -0.31687,-2.8882 0.93937,-3.72962 1.11666,-0.74794 2.62484,-0.006 3.37233,0.90907 m -26.62045,16.41479 c 1.3493,-0.90375 3.71164,-0.1944 4.80238,1.43406 1.96331,2.93123 2.45835,9.20496 -0.33329,11.07478 -1.58194,1.05957 -3.7731,0.50516 -4.83267,-1.07677 -2.49311,-3.7222 -2.61418,-9.43758 0.36358,-11.43207 m 5.90909,-11.10237 -5.49025,3.67734 0.53109,1.3967 c -1.50599,0.26729 -3.64844,0.69128 -5.55607,1.969 -6.4208,4.3006 -5.77963,13.50949 -1.57251,19.79071 2.80474,4.18747 8.92744,5.68081 12.46354,3.31236 2.83817,-1.90099 3.90307,-5.0407 5.10799,-8.07196 1.66399,0.97488 4.44465,1.20186 6.58491,-0.23168 2.23332,-1.49586 3.09762,-4.0294 3.93294,-5.59989 l -3.9517,-3.08226 c 0,0 -1.10043,1.07406 -1.8914,1.60385 -0.97708,0.65444 -2.14333,0.0202 -2.79776,-0.95692 -0.28048,-0.41874 -7.36078,-13.80725 -7.36078,-13.80725 m -12.34776,32.39998 -5.45464,-1.40159 c -0.53817,2.51728 -1.09256,4.70845 -3.41894,6.26664 -2.27984,1.52703 -5.37215,0.83478 -6.89917,-1.44506 -1.901,-2.83818 -3.40297,-7.89825 -0.14605,-10.07972 1.58194,-1.05957 3.51104,0.41177 4.50829,1.90065 l 5.21108,-3.49035 c -0.21902,-0.72952 -0.5311,-1.39671 -0.93622,-2.00156 -2.36845,-3.5361 -8.07022,-4.30035 -11.7459,-1.83841 -6.37426,4.26944 -7.17851,13.03103 -2.90906,19.40531 3.49035,5.21108 10.4049,6.57845 15.84861,2.93228 3.86179,-2.5866 5.66981,-6.83065 5.942,-10.24819 m -48.9494,8.65646 -5.39719,3.61501 c 0,0 8.14031,15.17235 9.38687,17.03345 1.77633,2.65206 5.14779,3.15733 7.70681,1.44331 3.48956,-2.33728 4.05627,-6.01952 4.59183,-9.74826 2.02215,1.409 5.65916,2.61261 8.40429,0.77395 2.04721,-1.37121 3.84249,-4.32611 4.52199,-6.12925 l -5.00735,-2.84699 c -0.37091,0.85503 -0.77342,1.46164 -1.61091,2.02259 -0.93056,0.62328 -2.08144,-0.0887 -2.70471,-1.01924 -0.62328,-0.93055 -7.32918,-13.55881 -7.32918,-13.55881 l -5.49026,3.67733 c 3.05842,6.5788 6.37226,16.35658 2.55701,18.91202 -0.69791,0.46745 -1.64558,0.36077 -2.11303,-0.33713 -3.42803,-5.11803 -7.51617,-13.83798 -7.51617,-13.83798 m -34.70449,7.06863 c 0,0 12.27585,24.26495 14.36383,27.3823 2.71125,4.04789 8.75234,3.70866 12.93981,0.90392 3.90832,-2.61776 7.56252,-7.82877 10.28661,-12.21457 l -5.41116,-2.84613 c -2.4458,3.795 -3.96192,6.56292 -7.87023,9.18068 -2.00069,1.34005 -4.64438,-0.19188 -5.85977,-2.00644 -0.87259,-1.30277 -12.77273,-24.20175 -12.77273,-24.20175 l -5.67636,3.80199"
             style="font-weight:500;fill:#1a1a1a;font-family:Postface;-inkscape-font-specification:Postface Medium"
             id="path3029" />
        </g>
      </g>
    </g>
  </g>
</svg>
