<?xml version="1.0" encoding="UTF-8" standalone="no"?>
<svg
   xmlns:dc="http://purl.org/dc/elements/1.1/"
   xmlns:cc="http://creativecommons.org/ns#"
   xmlns:rdf="http://www.w3.org/1999/02/22-rdf-syntax-ns#"
   xmlns:svg="http://www.w3.org/2000/svg"
   xmlns="http://www.w3.org/2000/svg"
   id="svg3886"
   version="1.1"
   viewBox="0 0 74.08333 11.90625"
   height="45"
   width="280">
  <defs
     id="defs3880" />
  <metadata
     id="metadata3883">
    <rdf:RDF>
      <cc:Work
         rdf:about="">
        <dc:format>image/svg+xml</dc:format>
        <dc:type
           rdf:resource="http://purl.org/dc/dcmitype/StillImage" />
        <dc:title></dc:title>
      </cc:Work>
    </rdf:RDF>
  </metadata>
  <path
     id="path3754"
     d="M 4.1137839,0.07690857 C 2.2998128,9.0856623e-4 0.60572378,1.2480986 0.12705478,3.1406786 c -0.0053,0.0213 -0.01061,0.0421 -0.01572,0.0633 -0.0019,0.006 -0.0036,0.013 -0.005,0.0195 -0.0036,0.0161 -0.0069,0.0328 -0.01064,0.0489 -9.099e-4,0.006 -0.0026,0.0109 -0.0037,0.0162 -0.0046,0.0218 -0.0092,0.0439 -0.01386,0.0657 v 4.7e-4 c -0.0041,0.0211 -0.0079,0.0422 -0.01202,0.0633 -8.4e-4,0.006 -0.0022,0.0122 -0.0033,0.0182 -0.0032,0.0165 -0.0059,0.033 -0.0083,0.0498 -9.099e-4,0.006 -0.0016,0.0115 -0.0027,0.0172 -0.0036,0.0216 -0.007,0.0432 -0.0097,0.0652 -2.31e-4,6.8e-4 -2.659e-4,0.002 -4.609e-4,0.003 -0.0031,0.0207 -0.0056,0.0412 -0.0083,0.0619 -4.379e-4,0.006 -0.0019,0.0109 -0.0019,0.0162 -0.002,0.0182 -0.0043,0.0369 -0.0064,0.055 -0.0011,0.004 -0.0011,0.007 -9.1e-4,0.0108 -0.002,0.0224 -0.0053,0.0447 -0.007,0.067 5e-6,0.002 -5.4e-5,0.004 0,0.006 -0.0016,0.0199 -0.0037,0.0398 -0.005,0.0596 -0.0012,0.006 -4.15e-4,0.0104 -0.0014,0.0154 -0.0015,0.0192 -0.0026,0.0386 -0.0037,0.0577 3.71e-4,0.002 -3.41e-4,0.004 0,0.007 -0.0015,0.0226 -0.0021,0.0452 -0.0033,0.0679 4e-6,0.002 9e-5,0.004 0,0.007 -0.001,0.0197 -0.0014,0.0395 -0.0019,0.0591 -2.94e-4,0.004 -3.25e-4,0.009 -4.63e-4,0.0135 -2.13e-4,0.0207 -4.2000719e-4,0.0409 -9.1000719e-4,0.0614 -1.49e-4,0.002 0,0.003 -4.62000006e-4,0.004 -1.60000003e-5,0.023 2.43000006e-4,0.0459 4.62000006e-4,0.0689 -1.49e-4,0.002 -1.73e-4,0.003 0,0.004 2.57e-4,0.021 9.1000719e-4,0.0417 0.001400007,0.0623 -6.1e-5,0.004 3.7e-4,0.007 4.62e-4,0.0112 4.65e-4,0.0215 0.0014,0.0428 0.0023,0.0643 3.36e-4,5.3e-4 3.81e-4,4.8e-4 4.63e-4,6.9e-4 0.001,0.0227 0.0027,0.0457 0.0037,0.0685 -1.48e-4,0.002 4.07e-4,0.004 4.62e-4,0.006 0.0015,0.0211 0.0032,0.0424 0.0047,0.0633 -1.47e-4,0.002 4.05e-4,0.004 4.61e-4,0.006 0.002,0.0226 0.0041,0.0454 0.0059,0.068 0.0025,0.023 0.0053,0.046 0.0078,0.0689 2.799e-4,6.9e-4 -4.31e-4,0.003 4.641e-4,0.003 0.0025,0.0211 0.005,0.0419 0.0078,0.0629 -1.4e-5,0.002 8.4e-4,0.004 9.099e-4,0.007 0.006,0.0455 0.01275,0.0908 0.02033,0.13596 3.09e-4,5e-4 7.001e-4,3.5e-4 4.609e-4,0.002 0.0036,0.0221 0.0074,0.0442 0.01156,0.0662 -1.5e-5,0.002 3.191e-4,0.002 4.619e-4,0.004 0.0084,0.0454 0.01782,0.0901 0.02774,0.13502 -1.47e-4,0.002 2.77e-4,0.002 4.62e-4,0.003 0.0047,0.0211 0.0097,0.0426 0.01479,0.0638 l 9.099e-4,0.004 c 0.01065,0.0445 0.02165,0.0886 0.03374,0.13271 2.839e-4,6.9e-4 6.26e-4,0.002 0.0014,0.004 0.0059,0.0218 0.01252,0.0439 0.01895,0.0657 0.01305,0.0442 0.02619,0.088 0.04068,0.13176 5.53e-4,6.9e-4 0.0013,0.002 0.0019,0.003 0.0219,0.0658 0.04505,0.13101 0.07026,0.19555 0.02521,0.0645 0.05197,0.12823 0.08044,0.19138 3.651e-4,5.3e-4 0.0013,0.002 0.0014,0.003 0.02856,0.0632 0.05881,0.12552 0.0906,0.18718 0.02134,0.0413 0.04333,0.0827 0.0661,0.12338 0.01138,0.0204 0.02344,0.0403 0.03513,0.0605 0.02936,0.0504 0.05949,0.10034 0.09106,0.14946 0.0025,0.006 0.007,0.0109 0.01202,0.0177 0.02405,0.0368 0.04868,0.0738 0.07396,0.10989 0.1462376,0.22735 0.42035262,0.75042 0.43634462,1.70604 l -0.005,0.0209 0.0055,0.002 3.185687,0.81762 0.0055,0.002 0.005,-0.0214 c 0.4678408,-0.83149 0.9570988,-1.15873 1.1934768,-1.2879 0.03932,-0.0195 0.07877,-0.0398 0.117404,-0.0606 0.0075,-0.004 0.01399,-0.007 0.01849,-0.01 0.05109,-0.0279 0.101904,-0.0571 0.151611,-0.087 0.01984,-0.012 0.03904,-0.0244 0.0587,-0.0367 0.03912,-0.0246 0.07825,-0.05 0.116483,-0.0759 4.5e-4,-6.3e-4 6.35e-4,-10e-5 0.0019,-6.9e-4 0.05683,-0.0386 0.112546,-0.0786 0.167326,-0.12014 5.03e-4,-2.9e-4 0.002,-6.8e-4 0.0023,-0.002 0.05494,-0.0417 0.109441,-0.0849 0.162242,-0.12943 0.05275,-0.0445 0.104382,-0.0906 0.154847,-0.13783 3.7e-4,-3.1e-4 0.002,-6.8e-4 0.0023,-6.8e-4 0.03352,-0.0315 0.06643,-0.0638 0.09891,-0.0964 0.01603,-0.016 0.03191,-0.0326 0.04761,-0.0489 4.5e-4,-6.4e-4 0.002,-6.9e-4 0.0023,-0.002 0.03153,-0.0328 0.06243,-0.0658 0.09291,-0.0996 0.0012,-0.002 0.002,-6.9e-4 0.0033,-0.004 0.01452,-0.0161 0.0292,-0.0325 0.04346,-0.0489 4.5e-4,-6.4e-4 0.0016,-0.002 0.0019,-6.9e-4 0.03004,-0.0346 0.05986,-0.0701 0.08875,-0.1057 4.5e-4,-6.4e-4 0.0013,-0.002 0.0014,-0.003 0.01401,-0.0174 0.02832,-0.0346 0.04206,-0.0522 1.04e-4,-4e-4 2.52e-4,-6.9e-4 4.76e-4,-6.9e-4 0.02809,-0.0359 0.05582,-0.0725 0.08273,-0.10942 0.0014,-0.002 0.0016,-0.004 0.0037,-0.006 0.01243,-0.0172 0.02481,-0.0345 0.03697,-0.0517 4.5e-4,-6.4e-4 0.0016,-0.002 0.0027,-0.003 0.02622,-0.0375 0.05173,-0.0752 0.07673,-0.11362 9e-4,-0.003 0.0025,-0.003 0.0037,-0.004 0.01145,-0.0177 0.02244,-0.0351 0.03374,-0.0531 0.0012,-0.002 0.0014,-0.004 0.0027,-0.004 0.01209,-0.0193 0.02425,-0.0382 0.03605,-0.0577 1e-5,0 5.56e-4,-6.9e-4 4.77e-4,-6.9e-4 0.01112,-0.0185 0.02206,-0.0368 0.03282,-0.0554 0.0021,-0.003 0.0036,-0.006 0.0055,-0.009 0.01054,-0.0181 0.02078,-0.0363 0.03096,-0.0545 4.49e-4,-0.002 6.87e-4,-0.003 0.0019,-0.004 0.01118,-0.0201 0.02227,-0.0403 0.03328,-0.0606 1.73e-4,-6.8e-4 6.88e-4,-0.002 0.0014,-0.003 0.0095,-0.0181 0.01917,-0.0363 0.02867,-0.0545 0.0021,-0.004 0.0042,-0.008 0.0064,-0.0125 0.009,-0.0176 0.0171,-0.0349 0.02589,-0.0526 7.67e-4,-0.002 0.0022,-0.004 0.0033,-0.006 0.0097,-0.0204 0.01997,-0.0405 0.02958,-0.061 7.67e-4,-0.002 0.0022,-0.004 0.0033,-0.006 0.0077,-0.0175 0.01615,-0.0346 0.02404,-0.0521 0.0026,-0.004 0.0037,-0.01 0.0059,-0.0148 0.0079,-0.0182 0.01597,-0.0363 0.02404,-0.0545 7.67e-4,-0.002 0.0023,-0.004 0.0027,-0.006 0.0087,-0.0207 0.01737,-0.0415 0.02589,-0.0623 0.001,-0.004 0.0032,-0.007 0.0046,-0.0102 0.007,-0.0169 0.01382,-0.034 0.02033,-0.0512 0.0018,-0.006 0.0036,-0.0104 0.006,-0.0153 0.0072,-0.0195 0.0149,-0.0388 0.02218,-0.0582 2.91e-4,-6.6e-4 0.0013,-0.003 0.0014,-0.004 0.0075,-0.0206 0.01457,-0.0412 0.0222,-0.0619 0.0017,-0.006 0.0042,-0.0111 0.0055,-0.0168 0.0058,-0.0157 0.01084,-0.0316 0.01618,-0.0475 0.0018,-0.006 0.0038,-0.0118 0.0055,-0.0177 0.007,-0.0202 0.0139,-0.0403 0.01989,-0.061 1.1e-5,1e-5 -5.2e-5,-6.9e-4 0,-6.9e-4 0.0069,-0.0212 0.01324,-0.0426 0.01942,-0.0643 0.0014,-0.006 0.0031,-0.0109 0.0046,-0.0162 0.0044,-0.0162 0.0089,-0.032 0.01341,-0.0479 0.0014,-0.006 0.0033,-0.0128 0.005,-0.0191 0.0056,-0.0211 0.0112,-0.0421 0.01664,-0.0633 0.311915,-1.23394 0.03971,-2.47574 -0.638849,-3.41446 -0.0093,-0.0129 -0.01828,-0.026 -0.02774,-0.0386 C 6.506302,0.94314853 5.775338,0.42297857 4.895477,0.19683857 l -9e-4,-0.003 c -0.260851,-0.06689 -0.5220391,-0.10463 -0.7811791,-0.11546 z m 0.7132191,2.19911003 0.436808,0.11827 -1.6205761,3.98197 -0.44605,-0.12012 z m -1.8308892,0.14294 -0.158083,0.59553 -1.330759,0.66538 -0.257924,-0.39065 z m 59.1866422,0.39393 -1.032158,0.12478 v 7.8908294 h 1.032158 z m -15.693617,0.0451 c -0.516065,0 -0.921333,0.16657 -1.2152,0.4996 -0.293873,0.32549 -0.440505,0.7647 -0.440505,1.31724 v 0.76082 h -0.795959 l 0.01109,0.83998 h 0.784868 v 4.5528094 h 1.032158 V 6.2756386 h 1.300713 l -0.333267,-0.83997 h -0.96745 v -0.65838 c -3e-6,-0.28006 0.0538,-0.50757 0.161319,-0.68167 0.114676,-0.18166 0.3008,-0.27239 0.558832,-0.27239 0.07884,0 0.164748,0.0154 0.257926,0.0457 0.100346,0.0227 0.186709,0.0494 0.258384,0.0796 l 0.257924,-0.84044 c -0.09317,-0.0604 -0.222493,-0.11737 -0.38735,-0.17041 -0.164851,-0.0531 -0.3258,-0.0796 -0.483489,-0.0796 z m 25.174879,0.0685 c -0.745427,0 -1.332894,0.19274 -1.762961,0.57876 -0.422879,0.38602 -0.634622,0.85909 -0.634622,1.41921 0,1.16565 0.62742,1.93392 1.881722,2.3048 1.261488,0.36333 1.892379,0.92758 1.892379,1.69207 0,0.33304 -0.136249,0.60162 -0.408609,0.80599 -0.27238,0.2043601 -0.670261,0.3063704 -1.19349,0.3063704 -0.329698,0 -0.662924,-0.0528 -0.999803,-0.1587804 -0.336888,-0.11353 -0.605903,-0.22322 -0.806582,-0.32919 -0.04305,0.14382 -0.08595,0.28735 -0.128974,0.4311601 -0.03584,0.1438193 -0.07129,0.2878193 -0.107227,0.4316293 0.14334,0.13624 0.443997,0.26489 0.902729,0.386 0.458732,0.12111 0.842296,0.18159 1.150496,0.18159 0.845769,0 1.49444,-0.1932 1.945981,-0.57923 0.458729,-0.393589 0.688268,-0.8928394 0.688268,-1.4983494 0,-1.1278 -0.630888,-1.88119 -1.892368,-2.25965 -1.261494,-0.37845 -1.892377,-0.95714 -1.892377,-1.73676 0,-0.3406 0.136247,-0.5943 0.408612,-0.76082 0.27953,-0.16652 0.623625,-0.25004 1.032155,-0.25004 0.344049,0 0.63432,0.0456 0.87085,0.13642 0.243689,0.0833 0.458909,0.17399 0.645268,0.27239 0.0502,-0.14382 0.10745,-0.28735 0.171961,-0.43116 0.0645,-0.14382 0.12178,-0.28782 0.171939,-0.43163 -0.243689,-0.12868 -0.537419,-0.24604 -0.881459,-0.35201 -0.336889,-0.10596 -0.68834,-0.15877 -1.053888,-0.15877 z m -66.131652,0.1774 1.080693,1.63291 -0.417392,0.20861 -0.821845,-1.24646 z m 4.545103,0.004 v 7.7204194 h 4.461904 L 14.410411,9.9767687 H 11.109628 V 3.1079686 Z m 23.525636,0 v 0.86278 h 2.268622 v 6.8576394 h 1.042789 V 3.9706686 h 2.408679 c -0.02867,-0.1438 -0.05385,-0.28781 -0.07534,-0.43162 -0.02151,-0.14381 -0.04322,-0.28734 -0.06472,-0.43116 z m 29.918271,0 v 7.7204194 h 2.526548 c 0.766927,0 1.401268,-0.17425 1.903,-0.52243 0.508878,-0.3557393 0.763127,-0.9154694 0.763127,-1.6799494 0,-0.49957 -0.12192,-0.90854 -0.365617,-1.22643 -0.243692,-0.31792 -0.559141,-0.55625 -0.946171,-0.7152 0.243671,-0.16652 0.441113,-0.371 0.591648,-0.61322 0.157668,-0.24978 0.236193,-0.54093 0.236193,-0.87396 0,-0.77962 -0.236458,-1.32084 -0.709519,-1.62362 -0.465892,-0.31032 -1.067676,-0.46561 -1.805932,-0.46561 z m -62.3039212,0.30172 0.259312,0.39252 -0.0027,6.9e-4 0.821843,1.24926 -0.157158,0.58947 -1.083003,-1.63571 0.03188,-0.12012 0.126653,-0.47587 z m 63.3356162,0.61787 h 1.075145 c 0.465894,0 0.838594,0.0795 1.118132,0.2384 0.27954,0.15139 0.419713,0.46556 0.419713,0.94242 0,0.439 -0.150569,0.7455 -0.451612,0.91959 -0.301021,0.17409 -0.688051,0.26481 -1.16111,0.27238 h -1.000268 z m -57.971906,0.82974 0.0014,0.004 -0.158545,0.59599 -1.750002,0.87071 0.15716,-0.58947 1.33122,-0.66909 -0.0014,-0.003 z m 16.129501,0.31708 c -0.809935,0 -1.433421,0.26857 -1.870645,0.80598 -0.430051,0.53742 -0.648734,1.23393 -0.655902,2.08923 0,0.86288 0.211291,1.56301 0.634179,2.1004094 0.430055,0.53741 1.046613,0.80598 1.849381,0.80598 0.222192,0 0.498142,-0.0456 0.827853,-0.13642 0.329706,-0.0908 0.609122,-0.21948 0.838484,-0.38599 L 24.022011,9.6703086 c -0.222194,0.11354 -0.426096,0.20426 -0.612453,0.2723901 -0.179192,0.0681 -0.426507,0.1024403 -0.741879,0.1024403 -0.494562,0 -0.856878,-0.1855304 -1.08624,-0.5564104 -0.229363,-0.37846 -0.343899,-0.8556 -0.343899,-1.43086 0.0071,-0.55253 0.129095,-1.01432 0.365624,-1.38521 0.243696,-0.37845 0.609013,-0.56758 1.096409,-0.56758 0.308204,0 0.55552,0.0379 0.741877,0.11361 0.186356,0.0756 0.390721,0.1628 0.612917,0.2612 l 0.300911,-0.77198 c -0.229363,-0.16652 -0.508777,-0.29518 -0.838485,-0.386 -0.322539,-0.0984 -0.5911,-0.14761 -0.806127,-0.14761 z m 4.203976,0 c -0.222195,0 -0.522852,0.0451 -0.902733,0.13596 -0.379883,0.0908 -0.670151,0.2082 -0.870841,0.352 l 0.290278,0.86326 c 0.193526,-0.0908 0.415673,-0.17434 0.666537,-0.25003 0.250866,-0.0833 0.530281,-0.12478 0.838484,-0.12478 0.408551,0 0.684503,0.13633 0.827854,0.40881 0.143352,0.27249 0.214937,0.59794 0.214937,0.9764 h -1.236464 c -0.566237,0 -1.028311,0.1476 -1.386688,0.4428 -0.351212,0.28763 -0.526943,0.70743 -0.526943,1.25996 0,0.49956 0.147096,0.9121394 0.440966,1.2376194 0.301039,0.32548 0.759649,0.48843 1.376058,0.48843 0.279538,0 0.558951,-0.0681 0.838486,-0.2044 0.279532,-0.13625 0.509069,-0.28792 0.688258,-0.45445 0.04299,0.0833 0.08596,0.17039 0.128963,0.26122 0.04299,0.0908 0.08942,0.17795 0.139594,0.26121 h 0.580559 V 7.0931186 c 0,-0.56769 -0.20044,-1.02947 -0.601821,-1.38521 -0.401386,-0.35576 -0.903409,-0.53361 -1.505484,-0.53361 z m 4.765587,0 c -0.609242,0 -1.09302,0.14353 -1.451401,0.43116 -0.35121,0.28006 -0.526478,0.67007 -0.526478,1.16964 0,0.44657 0.182658,0.79867 0.548203,1.05602 0.365546,0.25735 0.752573,0.45777 1.161122,0.60158 0.336872,0.11353 0.605435,0.24986 0.806127,0.40881 0.207859,0.15138 0.312007,0.33284 0.312007,0.54478 0,0.21194 -0.09676,0.3749 -0.290282,0.48844 -0.186359,0.1135301 -0.451456,0.1704104 -0.795496,0.1704104 -0.23653,0 -0.472993,-0.0343 -0.709523,-0.1024403 -0.236532,-0.0681 -0.466066,-0.1588501 -0.688263,-0.2723901 l -0.322636,0.8059894 c 0.222197,0.16652 0.509003,0.29156 0.860214,0.37482 0.35121,0.0833 0.638016,0.12478 0.860208,0.12478 0.688083,0 1.211352,-0.14399 1.56973,-0.43162 0.365546,-0.2952 0.548204,-0.7001094 0.548204,-1.2147894 0,-0.45415 -0.186582,-0.82114 -0.559298,-1.10119 -0.372713,-0.28763 -0.774052,-0.51468 -1.204105,-0.6812 -0.315376,-0.11354 -0.566156,-0.2309 -0.752512,-0.35202 -0.179187,-0.12867 -0.272479,-0.27627 -0.279649,-0.4428 0,-0.1968 0.07898,-0.35208 0.236662,-0.46562 0.164851,-0.1211 0.383535,-0.18158 0.655905,-0.18158 0.279534,0 0.526851,0.0379 0.741878,0.11361 0.222192,0.0756 0.433488,0.1628 0.634177,0.2612 l 0.322638,-0.78363 c -0.222194,-0.16652 -0.50161,-0.29516 -0.838485,-0.386 -0.336876,-0.0908 -0.616752,-0.13596 -0.838947,-0.13596 z m 9.871374,0 c -0.222194,0 -0.523314,0.0451 -0.903197,0.13596 -0.379881,0.0908 -0.67015,0.2082 -0.870839,0.352 l 0.29028,0.86326 c 0.193524,-0.0908 0.415671,-0.17434 0.666535,-0.25003 0.250865,-0.0833 0.530278,-0.12478 0.838483,-0.12478 0.408551,0 0.684504,0.13633 0.827855,0.40881 0.143351,0.27249 0.214937,0.59794 0.214937,0.9764 H 41.37919 c -0.566234,0 -1.028311,0.1476 -1.386686,0.4428 -0.351211,0.28763 -0.526942,0.70743 -0.526942,1.25996 0,0.49956 0.147098,0.9121394 0.440968,1.2376194 0.301038,0.32548 0.759645,0.48843 1.376056,0.48843 0.279537,0 0.55895,-0.0681 0.838485,-0.2044 0.279535,-0.13625 0.509069,-0.28792 0.688258,-0.45445 0.04299,0.0833 0.08596,0.17039 0.128961,0.26122 0.04299,0.0908 0.08942,0.17795 0.139597,0.26121 h 0.580556 V 7.0931186 c 0,-0.56769 -0.200435,-1.02947 -0.601821,-1.38521 -0.401381,-0.35576 -0.902946,-0.53361 -1.505019,-0.53361 z m 8.028464,0 c -0.222192,0 -0.523314,0.0451 -0.903195,0.13596 -0.379881,0.0908 -0.670147,0.2082 -0.870841,0.352 l 0.290282,0.86326 c 0.193521,-0.0908 0.416131,-0.17434 0.666996,-0.25003 0.250862,-0.0833 0.530281,-0.12478 0.838483,-0.12478 0.408554,0 0.684506,0.13633 0.827852,0.40881 0.143354,0.27249 0.214937,0.59794 0.214937,0.9764 h -1.236464 c -0.566232,0 -1.028308,0.1476 -1.386686,0.4428 -0.351211,0.28763 -0.526942,0.70743 -0.526942,1.25996 0,0.49956 0.147098,0.9121394 0.440968,1.2376194 0.301037,0.32548 0.759645,0.48843 1.376055,0.48843 0.279535,0 0.558951,-0.0681 0.838484,-0.2044 0.279537,-0.13625 0.509076,-0.28792 0.68826,-0.45445 0.04298,0.0833 0.08597,0.17039 0.128963,0.26122 0.04298,0.0908 0.08943,0.17795 0.139595,0.26121 h 0.580559 V 7.0931186 c 0,-0.56769 -0.200438,-1.02947 -0.601819,-1.38521 -0.401389,-0.35576 -0.903414,-0.53361 -1.505487,-0.53361 z m 8.510106,0 c -0.781262,0 -1.393896,0.26857 -1.838285,0.80598 -0.437222,0.53742 -0.6559,1.23393 -0.6559,2.08923 0,0.86288 0.232995,1.56301 0.698887,2.1004094 0.473061,0.52985 1.146889,0.79481 2.021329,0.79481 0.222194,0 0.509,-0.0419 0.860211,-0.12525 0.358378,-0.0756 0.652113,-0.19666 0.88147,-0.36318 L 59.735254,9.6814886 c -0.215026,0.10596 -0.430249,0.19669 -0.645276,0.2723901 -0.207857,0.0681 -0.465571,0.1024303 -0.773774,0.1024303 -0.530397,0 -0.928269,-0.1629604 -1.193472,-0.4884304 -0.26521,-0.32548 -0.415766,-0.74166 -0.451599,-1.24879 h 3.698299 c 0,-0.84017 -0.168342,-1.57414 -0.505217,-2.20237 -0.336875,-0.62824 -0.928264,-0.94242 -1.774042,-0.94242 z m -43.144039,0.14761 v 3.63321 c 0,0.59038 0.143632,1.0824104 0.430335,1.4760194 0.29387,0.38602 0.759407,0.57876 1.397319,0.57876 0.279535,0 0.577194,-0.0682 0.892566,-0.20441 0.322543,-0.14382 0.598494,-0.32934 0.827853,-0.55641 l 0.300912,0.57923 h 0.591192 V 5.3219086 h -1.032159 v 4.144 c -0.215028,0.18923 -0.447564,0.34044 -0.698428,0.45398 -0.250866,0.1059704 -0.473475,0.1592394 -0.666998,0.1592394 -0.329706,0 -0.580489,-0.1096893 -0.75251,-0.3291894 -0.164853,-0.22708 -0.247292,-0.5187 -0.247292,-0.87444 v -3.55359 z m 37.765541,0 v 5.5063994 h 1.032159 V 7.0702986 c 0.250859,-0.25735 0.53028,-0.46545 0.838483,-0.62439 0.31537,-0.16653 0.616497,-0.25004 0.903197,-0.25004 l -0.226031,-0.87396 c -0.279532,0 -0.573264,0.0871 -0.881475,0.2612 -0.30103,0.16653 -0.551812,0.3403 -0.752509,0.52197 l -0.333269,-0.78317 z m 5.346608,0.78317 c 0.394211,0 0.694875,0.13272 0.902734,0.39763 0.207857,0.26492 0.344107,0.62423 0.408612,1.07837 h -2.676768 c 0.05019,-0.44658 0.189875,-0.80227 0.419237,-1.0672 0.229362,-0.27248 0.544804,-0.4088 0.946185,-0.4088 z m 6.494788,1.18081 h 1.559105 c 0.465891,0 0.838594,0.10969 1.118132,0.32918 0.286691,0.21951 0.429871,0.56393 0.429871,1.03321 0,0.46172 -0.157486,0.79124 -0.472858,0.98805 -0.315378,0.1968 -0.709787,0.2952001 -1.182847,0.2952001 h -1.451403 z m -37.831639,0.9764 h 1.268357 v 1.11282 c -0.179189,0.21193 -0.387019,0.38618 -0.623546,0.52242 -0.229362,0.1362504 -0.476678,0.2039394 -0.741881,0.2039394 -0.293869,0 -0.51209,-0.0907 -0.65544,-0.2723794 -0.143352,-0.18167 -0.215399,-0.37847 -0.215399,-0.59041 0,-0.25734 0.08245,-0.4844 0.247293,-0.68119 0.164852,-0.1968 0.405244,-0.2952 0.720616,-0.2952 z m 14.636496,0 h 1.26882 v 1.11282 c -0.179186,0.21193 -0.387479,0.38618 -0.624009,0.52242 -0.229359,0.1362504 -0.476213,0.2039394 -0.741415,0.2039394 -0.293868,0 -0.512554,-0.0907 -0.655905,-0.2723794 -0.143349,-0.18167 -0.214937,-0.37847 -0.214937,-0.59041 0,-0.25734 0.08245,-0.4844 0.247293,-0.68119 0.164854,-0.1968 0.404783,-0.2952 0.720153,-0.2952 z m 8.028927,0 h 1.26836 v 1.11282 c -0.179187,0.21193 -0.387017,0.38618 -0.623549,0.52242 -0.229362,0.1362504 -0.476679,0.2039394 -0.741879,0.2039394 -0.293867,0 -0.512548,-0.0907 -0.655902,-0.2723794 -0.143351,-0.18167 -0.214937,-0.37847 -0.214937,-0.59041 0,-0.25734 0.08245,-0.4844 0.247293,-0.68119 0.164854,-0.1968 0.405244,-0.2952 0.720614,-0.2952 z m -48.2664682,0.12548 c -0.09931,0.0514 -0.18125302,0.38924 -0.12110602,0.48052 l 3.19631912,0.81996 c 0.09614,-0.0512 0.1847329,-0.38706 0.1220269,-0.48007 H 4.317177 Z m -0.16131902,0.63696 c -0.0993,0.0515 -0.18116,0.38882 -0.121105,0.48005 L 4.0347439,10.324738 c 0.09604,-0.0511 0.1839759,-0.3865693 0.1215649,-0.4800494 z m -0.160856,0.6365 c -0.0993,0.0514 -0.181249,0.3892804 -0.121104,0.4805294 l 3.19677812,0.81995 c 0.09615,-0.0512 0.184285,-0.38706 0.1215671,-0.48006 h -4.498e-4 z m -0.160855,0.6369694 c -0.09931,0.0515 -0.181664,0.3888 -0.121568,0.48005 l 3.19677912,0.81996 c 0.09614,-0.0512 0.1842899,-0.38705 0.121567,-0.48005 z m 0.226491,0.7366 c 0.30078502,0.28652 0.37043702,0.47141 0.75251102,0.5811 l 0.366548,0.0936 0.366085,0.0941 c 0.387267,0.0876 0.5361999,-0.041 0.9355551,-0.1476 l -1.2096571,-0.31104 z"
     style="opacity:1;fill:#ffffff;fill-opacity:0.99356911;fill-rule:nonzero;stroke:none;stroke-width:0.60541415;stroke-linecap:round;stroke-linejoin:round;stroke-miterlimit:4;stroke-dasharray:none;stroke-dashoffset:0;stroke-opacity:1;paint-order:fill markers stroke" />
</svg>
