<svg version="1" xmlns="http://www.w3.org/2000/svg" width="933.333" height="933.333" viewBox="0 0 700.000000 700.000000"><path d="M102.2 157c-.8.6-.8.7-1.6 8-.7 6.1-1.2 10.8-2.6 22-.5 4.1-1.2 9.7-1.5 12.5-.3 2.7-.7 6.6-1 8.5-1.6 13-2.3 19.1-3 26-.3 3-.8 6.6-1 8-.6 4.2-3.5 29.1-5 43.5-.3 3.3-.8 7.1-1 8.5-.2 1.4-.6 5.6-1 9.5-.3 3.8-.8 8.3-1 10-.2 1.6-.9 7.5-1.5 13s-1.3 11.3-1.5 13c-.2 1.6-.7 6.6-1 11-.4 4.4-.9 8.8-1.1 9.8-.2 1-.6 6.2-1 11.5-.3 5.3-.8 10-1 10.4-.2.3-.6 7.3-.9 15.5-.4 13-.2 15.6 1.6 21.6 7.3 24.1 31.1 42.4 62.9 48.2 7.3 1.3 31.3 1.4 37 .1 1.4-.3 4.1-.7 6-1 16-2 56.7-14.7 77.7-24.2 2.9-1.3 7.8-3.5 10.8-4.9 3.1-1.4 6.2-2.5 7.1-2.5 2.4 0 2.6-2.5.5-6.3-2.2-4-7.2-13.2-13.4-24.7-2.2-4.1-4.8-8.9-5.9-10.7l-1.9-3.1-9.7 4c-5.3 2.2-10.1 4.4-10.7 4.8-2.3 1.6-26.7 10.2-35.8 12.5-12.5 3.1-19.4 4-33.7 4-13.1 0-15.4-.8-22.2-7.8-4-4.1-9.2-13.5-10.6-19.4-1.3-5.1-.7-26.4 1.2-41.8.2-1.7.7-6.6 1.1-10.9.4-4.3.8-8.6 1-9.5.1-.9.6-5.2 1-9.5s.8-8.6 1-9.5c.1-.9.6-5 1-9.1.3-4.1.8-8.9 1-10.5.2-1.7.7-5.9 1-9.5.5-6.2 1.1-11.1 2-19 .8-6.9 3.4-30.6 4-37 .3-3.6.8-7.2 1-8 .3-.8.7-4.9 1-9 .3-4.1.8-8.6 1-10 .2-1.4.7-5.2 1-8.5.3-3.3.7-6.9.9-8 .3-1.8 1.7-15.3 2-20 .1-1.9-.7-1.9-26.7-2-14.8 0-27.2.2-27.5.5zM594.7 218.7c-.3.4-.8 4.1-1.1 8.2-.4 4.1-.9 8.4-1.1 9.5-.2 1.2-.7 4.3-1 7-1.5 12.3-6.9 38.9-10.2 50-2.7 9.1-11.5 35.1-12.2 36.1-.4.5-1.6 3.2-2.6 6-3.6 9.9-16.8 35.7-25.8 50.5-3.4 5.6-15.2 23.2-17.8 26.4-15.7 19.9-38.7 43.9-53.4 55.4-4.4 3.5-8.9 7.1-10 8-8.3 6.8-25.3 17.8-48.8 31.6-4.5 2.6-11.5 6.4-23.5 12.6-5.6 2.9-10.1 5.7-10 6.1 1.2 3.1 14.5 25.9 15.1 25.9 1.6 0 32.3-13.4 45.2-19.8 28.4-14 56.7-32.2 77.4-49.7 20.1-16.9 40.3-38.9 53.1-57.5 2.5-3.6 4.8-6.7 5.1-7 .3-.3 2.9-4.6 5.9-9.5 2.9-5 6.3-10.6 7.4-12.5 4.4-7.2 20.1-41 19.1-41-.2 0 .5-2.1 1.6-4.7s2.9-7.9 4-11.8c1.1-3.8 2.2-7.7 2.5-8.5 1.3-4.1 6.3-30.1 6.9-35.7.3-3.5.8-7.2 1-8.2.4-2.2 1.6-17 2-26.1.7-13.9 1.6-41 1.3-41.1-2.4-.6-29.7-.8-30.1-.2zM435.3 251.1c-16.2 3-27.7 19.8-25.1 36.4 4.6 29.6 43.3 37.9 59.2 12.7 15.2-24.2-5.8-54.4-34.1-49.1zM381 329.9c-9.1 2.8-16.8 9.4-20.9 18.1-3.7 7.9-3.7 19.2 0 27 3.3 6.9 8.7 12.2 15.8 15.8 7.9 3.8 19.1 3.8 27.1 0 26.6-12.8 24.4-50.8-3.4-60.1-5.1-1.8-14.2-2.1-18.6-.8z"/></svg>